<?xml version="1.0" encoding="utf-8"?>
<!-- Generator: Adobe Illustrator 20.1.0, SVG Export Plug-In . SVG Version: 6.00 Build 0)  -->
<svg version="1.1" id="Layer_1" xmlns="http://www.w3.org/2000/svg" xmlns:xlink="http://www.w3.org/1999/xlink" x="0px" y="0px"
	 viewBox="0 0 798 541.5" enable-background="new 0 0 798 541.5" xml:space="preserve">
<g>
	<defs>
		<rect id="SVGID_1_" x="-13.8" y="14.1" width="886" height="554.5"/>
	</defs>
	<clipPath id="SVGID_2_">
		<use xlink:href="#SVGID_1_"  overflow="visible"/>
	</clipPath>
	<path clip-path="url(#SVGID_2_)" fill="#AD2F1A" d="M429.2,83.3c118.5,0,214.6,92.2,214.6,205.9c0,113.7-96.1,205.9-214.6,205.9
		s-214.6-92.2-214.6-205.9c0-5.9,0.3-11.9,0.8-17.8l213.8,17.8V83.3z"/>
	
		<path clip-path="url(#SVGID_2_)" fill="none" stroke="#FFFFFF" stroke-width="2" stroke-linejoin="round" stroke-miterlimit="10" d="
		M429.2,83.3c118.5,0,214.6,92.2,214.6,205.9s-96.1,205.9-214.6,205.9s-214.6-92.2-214.6-205.9c0-5.9,0.3-11.9,0.8-17.8l213.8,17.8
		V83.3z"/>
	<path clip-path="url(#SVGID_2_)" fill="#EF7460" d="M215.3,271.4c0.9-10.3,2.7-20.6,5.2-30.7l208.6,48.5L215.3,271.4z"/>
	
		<path clip-path="url(#SVGID_2_)" fill="none" stroke="#FFFFFF" stroke-width="2" stroke-linejoin="round" stroke-miterlimit="10" d="
		M215.3,271.4c0.9-10.3,2.7-20.6,5.2-30.7l208.6,48.5L215.3,271.4z"/>
	<path clip-path="url(#SVGID_2_)" fill="#BC5342" d="M220.6,240.7c4.5-17.8,11.5-35,20.7-51l187.9,99.5L220.6,240.7z"/>
	
		<path clip-path="url(#SVGID_2_)" fill="none" stroke="#FFFFFF" stroke-width="2" stroke-linejoin="round" stroke-miterlimit="10" d="
		M220.6,240.7c4.5-17.8,11.5-35,20.7-51l187.9,99.5L220.6,240.7z"/>
	<path clip-path="url(#SVGID_2_)" fill="#DC5236" d="M241.2,189.7C279,124,351,83.3,429.2,83.3v205.9L241.2,189.7z"/>
	
		<path clip-path="url(#SVGID_2_)" fill="none" stroke="#FFFFFF" stroke-width="2" stroke-linejoin="round" stroke-miterlimit="10" d="
		M241.2,189.7C279,124,351,83.3,429.2,83.3v205.9L241.2,189.7z"/>
	<g clip-path="url(#SVGID_2_)">
		<text transform="matrix(0.8585 0 0 1 287.6696 57.1301)"><tspan x="0" y="0" fill="#595959" font-family="'Helvetica'" font-size="31.493px" letter-spacing="-2.3">T</tspan><tspan x="15.8" y="0" fill="#595959" font-family="'Helvetica'" font-size="31.493px">y</tspan><tspan x="31.5" y="0" fill="#595959" font-family="'Helvetica'" font-size="31.493px">pe</tspan><tspan x="68.2" y="0" fill="#595959" font-family="'Helvetica'" font-size="31.493px">s</tspan><tspan x="84" y="0" fill="#595959" font-family="'Helvetica'" font-size="31.493px"> </tspan><tspan x="91.9" y="0" fill="#595959" font-family="'Helvetica'" font-size="31.493px">o</tspan><tspan x="110.3" y="0" fill="#595959" font-family="'Helvetica'" font-size="31.493px">f</tspan><tspan x="118.2" y="0" fill="#595959" font-family="'Helvetica'" font-size="31.493px" letter-spacing="1.2"> </tspan><tspan x="128.6" y="0" fill="#595959" font-family="'Helvetica'" font-size="31.493px">T</tspan><tspan x="147" y="0" fill="#595959" font-family="'Helvetica'" font-size="31.493px">inde</tspan><tspan x="210" y="0" fill="#595959" font-family="'Helvetica'" font-size="31.493px">r</tspan><tspan x="220.5" y="0" fill="#595959" font-family="'Helvetica'" font-size="31.493px" letter-spacing="-3.5"> </tspan><tspan x="225.7" y="0" fill="#595959" font-family="'Helvetica'" font-size="31.493px">u</tspan><tspan x="244.1" y="0" fill="#595959" font-family="'Helvetica'" font-size="31.493px">s</tspan><tspan x="259.8" y="0" fill="#595959" font-family="'Helvetica'" font-size="31.493px">e</tspan><tspan x="278.2" y="0" fill="#595959" font-family="'Helvetica'" font-size="31.493px">rs</tspan></text>
	</g>
	<g clip-path="url(#SVGID_2_)">
		<text transform="matrix(1.0426 0 0 1 589.2632 490.5605)"><tspan x="0" y="0" fill="#595959" font-family="'Helvetica'" font-size="30px" letter-spacing="1">S</tspan><tspan x="21" y="0" fill="#595959" font-family="'Helvetica'" font-size="30px">i</tspan><tspan x="27" y="0" fill="#595959" font-family="'Helvetica'" font-size="30px" letter-spacing="1">ng</tspan><tspan x="63" y="0" fill="#595959" font-family="'Helvetica'" font-size="30px">l</tspan><tspan x="69" y="0" fill="#595959" font-family="'Helvetica'" font-size="30px">e</tspan><tspan x="0" y="28.8" fill="#595959" font-family="'Helvetica'" font-size="24px">(54%)</tspan></text>
	</g>
	<g clip-path="url(#SVGID_2_)">
		<text transform="matrix(1.0426 0 0 1 79.8306 284.5605)"><tspan x="0" y="0" fill="#595959" font-family="'Helvetica'" font-size="30px" letter-spacing="-1">M</tspan><tspan x="24" y="0" fill="#595959" font-family="'Helvetica'" font-size="30px" letter-spacing="1">a</tspan><tspan x="42" y="0" fill="#595959" font-family="'Helvetica'" font-size="30px" letter-spacing="-1">rr</tspan><tspan x="60" y="0" fill="#595959" font-family="'Helvetica'" font-size="30px">i</tspan><tspan x="66" y="0" fill="#595959" font-family="'Helvetica'" font-size="30px" letter-spacing="1">e</tspan><tspan x="84" y="0" fill="#595959" font-family="'Helvetica'" font-size="30px">d</tspan><tspan x="0" y="28.8" fill="#595959" font-family="'Helvetica'" font-size="24px">  (1.7%)</tspan></text>
	</g>
	<g clip-path="url(#SVGID_2_)">
		<text transform="matrix(1.0426 0 0 1 77.8487 204.5605)"><tspan x="0" y="0" fill="#595959" font-family="'Helvetica'" font-size="30px">Di</tspan><tspan x="27" y="0" fill="#595959" font-family="'Helvetica'" font-size="30px">v</tspan><tspan x="42" y="0" fill="#595959" font-family="'Helvetica'" font-size="30px" letter-spacing="1">o</tspan><tspan x="60" y="0" fill="#595959" font-family="'Helvetica'" font-size="30px" letter-spacing="-1">r</tspan><tspan x="69" y="0" fill="#595959" font-family="'Helvetica'" font-size="30px">c</tspan><tspan x="84" y="0" fill="#595959" font-family="'Helvetica'" font-size="30px" letter-spacing="1">e</tspan><tspan x="102" y="0" fill="#595959" font-family="'Helvetica'" font-size="30px">d</tspan><tspan x="0" y="28.8" fill="#595959" font-family="'Helvetica'" font-size="24px">   (3%)</tspan></text>
	</g>
	<g clip-path="url(#SVGID_2_)">
		<text transform="matrix(1.0426 0 0 1 61.3037 110.5605)"><tspan x="0" y="0" fill="#595959" font-family="'Helvetica'" font-size="30px">In a relationship</tspan><tspan x="0" y="28.8" fill="#595959" font-family="'Helvetica'" font-size="24px">   (12%)</tspan></text>
	</g>
</g>
<rect x="569.4" y="473.9" fill="#AD2F1A" width="11" height="11"/>
<rect x="40.1" y="93.1" fill="#DC5236" width="11.5" height="11.5"/>
<rect x="56.1" y="186.8" fill="#BC5342" width="10.2" height="10.2"/>
<rect x="61.3" y="270.6" fill="#EF7460" width="10.6" height="10.6"/>
</svg>
