<?xml version="1.0" encoding="utf-8"?>
<!-- Generator: Adobe Illustrator 20.1.0, SVG Export Plug-In . SVG Version: 6.00 Build 0)  -->
<svg version="1.1" id="Layer_1" xmlns="http://www.w3.org/2000/svg" xmlns:xlink="http://www.w3.org/1999/xlink" x="0px" y="0px"
	 viewBox="0 0 814 720" style="enable-background:new 0 0 814 720;" xml:space="preserve">
<style type="text/css">
	.st0{clip-path:url(#SVGID_2_);fill:#AD2F1A;}
	.st1{clip-path:url(#SVGID_4_);fill:none;stroke:#FFFFFF;stroke-width:2;stroke-linejoin:round;stroke-miterlimit:10;}
	.st2{clip-path:url(#SVGID_6_);fill:#E5B1AA;}
	.st3{clip-path:url(#SVGID_8_);fill:#EA877D;stroke:#FFFFFF;stroke-width:2;stroke-linejoin:round;stroke-miterlimit:10;}
	.st4{clip-path:url(#SVGID_10_);fill:#EF7460;}
	.st5{clip-path:url(#SVGID_12_);fill:none;stroke:#FFFFFF;stroke-width:2;stroke-linejoin:round;stroke-miterlimit:10;}
	.st6{clip-path:url(#SVGID_14_);fill:#BC5342;}
	.st7{clip-path:url(#SVGID_16_);fill:none;stroke:#FFFFFF;stroke-width:2;stroke-linejoin:round;stroke-miterlimit:10;}
	.st8{clip-path:url(#SVGID_18_);fill:#DC5236;}
	.st9{clip-path:url(#SVGID_20_);fill:none;stroke:#FFFFFF;stroke-width:2;stroke-linejoin:round;stroke-miterlimit:10;}
	.st10{clip-path:url(#SVGID_22_);}
	.st11{fill:#595959;}
	.st12{font-family:'Helvetica';}
	.st13{font-size:40.4639px;}
	.st14{clip-path:url(#SVGID_24_);}
	.st15{enable-background:new    ;}
	.st16{font-size:30px;}
	.st17{font-size:24px;}
	.st18{clip-path:url(#SVGID_26_);fill:#ED7D31;}
	.st19{clip-path:url(#SVGID_28_);fill:#ED7D31;}
	.st20{clip-path:url(#SVGID_30_);}
	.st21{clip-path:url(#SVGID_32_);}
	.st22{clip-path:url(#SVGID_34_);}
	.st23{clip-path:url(#SVGID_36_);}
	.st24{font-size:15.2162px;}
	.st25{clip-path:url(#SVGID_38_);}
	.st26{fill:#4D4D4D;}
	.st27{fill:#AD2F1A;}
	.st28{fill:#BC5342;}
	.st29{fill:#DC5236;}
	.st30{fill:#EF7460;}
	.st31{fill:#EA877D;stroke:#FFFFFF;stroke-width:2;stroke-linejoin:round;stroke-miterlimit:10;}
</style>
<g>
	<g>
		<g>
			<g>
				<defs>
					<polygon id="SVGID_1_" points="-167.8,-19.4 981.8,-19.4 984,660.1 -165.7,660.1 					"/>
				</defs>
				<clipPath id="SVGID_2_">
					<use xlink:href="#SVGID_1_"  style="overflow:visible;"/>
				</clipPath>
				<path class="st0" d="M407.5,50.9c152.9,0,276.8,121.2,276.8,276.8c0,117.2-77.2,226.2-191.3,263.3l-85.5-264.3V50.9L407.5,50.9z
					"/>
			</g>
		</g>
	</g>
	<g>
		<g>
			<g>
				<defs>
					<polygon id="SVGID_3_" points="-167.8,-19.4 981.8,-19.4 984,660.1 -165.7,660.1 					"/>
				</defs>
				<clipPath id="SVGID_4_">
					<use xlink:href="#SVGID_3_"  style="overflow:visible;"/>
				</clipPath>
				<path class="st1" d="M407.5,50.9c152.9,0,276.8,121.2,276.8,276.8c0,117.2-77.2,226.2-191.3,263.3l-85.5-264.3V50.9L407.5,50.9z
					"/>
			</g>
		</g>
	</g>
</g>
<g>
	<g>
		<g>
			<g>
				<defs>
					<polygon id="SVGID_5_" points="-167.8,-19.4 981.8,-19.4 984,660.1 -165.7,660.1 					"/>
				</defs>
				<clipPath id="SVGID_6_">
					<use xlink:href="#SVGID_5_"  style="overflow:visible;"/>
				</clipPath>
				<path class="st2" d="M493,591.1c-5.5,1.8-11.1,3.4-16.7,4.9l-68.8-269.1L493,591.1z"/>
			</g>
		</g>
	</g>
	<g>
		<g>
			<g>
				<defs>
					<polygon id="SVGID_7_" points="-167.8,-19.4 981.8,-19.4 984,660.1 -165.7,660.1 					"/>
				</defs>
				<clipPath id="SVGID_8_">
					<use xlink:href="#SVGID_7_"  style="overflow:visible;"/>
				</clipPath>
				<path class="st3" d="M493,591.1c-5.5,1.8-11.1,3.4-16.7,4.9l-68.8-269.1L493,591.1z"/>
			</g>
		</g>
	</g>
</g>
<g>
	<g>
		<g>
			<g>
				<defs>
					<polygon id="SVGID_9_" points="-167.8,-19.4 981.8,-19.4 984,660.1 -165.7,660.1 					"/>
				</defs>
				<clipPath id="SVGID_10_">
					<use xlink:href="#SVGID_9_"  style="overflow:visible;"/>
				</clipPath>
				<path class="st4" d="M476.4,595.9c-16.9,4.3-34.1,7.1-51.5,8.2l-17.4-277.3L476.4,595.9z"/>
			</g>
		</g>
	</g>
	<g>
		<g>
			<g>
				<defs>
					<polygon id="SVGID_11_" points="-167.8,-19.4 981.8,-19.4 984,660.1 -165.7,660.1 					"/>
				</defs>
				<clipPath id="SVGID_12_">
					<use xlink:href="#SVGID_11_"  style="overflow:visible;"/>
				</clipPath>
				<path class="st5" d="M476.4,595.9c-16.9,4.3-34.1,7.1-51.5,8.2l-17.4-277.3L476.4,595.9z"/>
			</g>
		</g>
	</g>
</g>
<g>
	<g>
		<g>
			<g>
				<defs>
					<polygon id="SVGID_13_" points="-167.8,-19.4 981.8,-19.4 984,660.1 -165.7,660.1 					"/>
				</defs>
				<clipPath id="SVGID_14_">
					<use xlink:href="#SVGID_13_"  style="overflow:visible;"/>
				</clipPath>
				<path class="st6" d="M424.9,604.1c-20.3,1.3-121.9,4.4-206.9-75.5l189.5-201.8L424.9,604.1z"/>
			</g>
		</g>
	</g>
	<g>
		<g>
			<g>
				<defs>
					<polygon id="SVGID_15_" points="-167.8,-19.4 981.8,-19.4 984,660.1 -165.7,660.1 					"/>
				</defs>
				<clipPath id="SVGID_16_">
					<use xlink:href="#SVGID_15_"  style="overflow:visible;"/>
				</clipPath>
				<path class="st7" d="M424.9,604.1c-20.3,1.3-121.9,4.4-206.9-75.5l189.5-201.8L424.9,604.1z"/>
			</g>
		</g>
	</g>
</g>
<g>
	<g>
		<g>
			<g>
				<defs>
					<polygon id="SVGID_17_" points="-167.8,-19.4 981.8,-19.4 984,660.1 -165.7,660.1 					"/>
				</defs>
				<clipPath id="SVGID_18_">
					<use xlink:href="#SVGID_17_"  style="overflow:visible;"/>
				</clipPath>
				<path class="st8" d="M217.5,531.3C106,426.6,100.5,251.4,205.2,140C257.5,84.3,330.6,53.7,407,53.7v275.8L217.5,531.3z"/>
			</g>
		</g>
	</g>
	<g>
		<g>
			<g>
				<defs>
					<polygon id="SVGID_19_" points="-167.8,-19.4 981.8,-19.4 984,660.1 -165.7,660.1 					"/>
				</defs>
				<clipPath id="SVGID_20_">
					<use xlink:href="#SVGID_19_"  style="overflow:visible;"/>
				</clipPath>
				<path class="st9" d="M218,528.6c-111.5-104.7-117-279.9-12.3-391.3C258,81.6,331,51,407.5,51v275.8L218,528.6z"/>
			</g>
		</g>
	</g>
</g>
<g>
	<g>
		<g>
			<g>
				<defs>
					<rect id="SVGID_21_" y="7.9" width="814" height="697.8"/>
				</defs>
				<clipPath id="SVGID_22_">
					<use xlink:href="#SVGID_21_"  style="overflow:visible;"/>
				</clipPath>
				<g class="st10">
					<text transform="matrix(0.6999 0 0 1 194.0117 46.4087)" class="st11 st12 st13">P</text>
					<text transform="matrix(0.6999 0 0 1 212.207 46.4087)" class="st11 st12 st13">e</text>
					<text transform="matrix(0.6999 0 0 1 228.4209 46.4087)" class="st11 st12 st13">r</text>
					<text transform="matrix(0.6999 0 0 1 238.4746 46.4087)" class="st11 st12 st13">c</text>
					<text transform="matrix(0.6999 0 0 1 252.6348 46.4087)" class="st11 st12 st13">en</text>
					<text transform="matrix(0.6999 0 0 1 284.9902 46.4087)" class="st11 st12 st13">t</text>
					<text transform="matrix(0.6999 0 0 1 293.0615 46.4087)" class="st11 st12 st13">age</text>
					<text transform="matrix(0.6999 0 0 1 341.6318 46.4087)" class="st11 st12 st13"> </text>
					<text transform="matrix(0.6999 0 0 1 347.7207 46.4087)" class="st11 st12 st13">o</text>
					<text transform="matrix(0.6999 0 0 1 363.8633 46.4087)" class="st11 st12 st13">f</text>
					<text transform="matrix(0.6999 0 0 1 371.9346 46.4087)" class="st11 st12 st13"> </text>
					<text transform="matrix(0.6999 0 0 1 378.0234 46.4087)" class="st11 st12 st13">T</text>
					<text transform="matrix(0.6999 0 0 1 394.2363 46.4087)" class="st11 st12 st13">i</text>
					<text transform="matrix(0.6999 0 0 1 400.3262 46.4087)" class="st11 st12 st13">nde</text>
					<text transform="matrix(0.6999 0 0 1 448.8252 46.4087)" class="st11 st12 st13">r</text>
					<text transform="matrix(0.6999 0 0 1 458.9492 46.4087)" class="st11 st12 st13"> </text>
					<text transform="matrix(0.6999 0 0 1 465.0381 46.4087)" class="st11 st12 st13">U</text>
					<text transform="matrix(0.6999 0 0 1 485.2871 46.4087)" class="st11 st12 st13">s</text>
					<text transform="matrix(0.6999 0 0 1 499.4473 46.4087)" class="st11 st12 st13">e</text>
					<text transform="matrix(0.6999 0 0 1 515.5898 46.4087)" class="st11 st12 st13">r</text>
					<text transform="matrix(0.6999 0 0 1 525.7148 46.4087)" class="st11 st12 st13">s</text>
					<text transform="matrix(0.6999 0 0 1 539.874 46.4087)" class="st11 st12 st13"> </text>
					<text transform="matrix(0.6999 0 0 1 545.9639 46.4087)" class="st11 st12 st13">b</text>
					<text transform="matrix(0.6999 0 0 1 562.1768 46.4087)" class="st11 st12 st13">y</text>
					<text transform="matrix(0.6999 0 0 1 576.3369 46.4087)" class="st11 st12 st13"> </text>
					<text transform="matrix(0.6999 0 0 1 582.4258 46.4087)" class="st11 st12 st13">A</text>
					<text transform="matrix(0.6999 0 0 1 600.6221 46.4087)" class="st11 st12 st13">g</text>
					<text transform="matrix(0.6999 0 0 1 616.7637 46.4087)" class="st11 st12 st13">e</text>
				</g>
			</g>
		</g>
	</g>
</g>
<g>
	<g>
		<g>
			<g>
				<defs>
					<rect id="SVGID_23_" x="-163.6" y="15.9" width="1149.7" height="689.8"/>
				</defs>
				<clipPath id="SVGID_24_">
					<use xlink:href="#SVGID_23_"  style="overflow:visible;"/>
				</clipPath>
				<g class="st14">
					<text transform="matrix(1 0 0 1 722.1593 323.7873)" class="st15"><tspan x="0" y="0" class="st11 st12 st16">25-34</tspan><tspan x="0" y="28.8" class="st11 st12 st17">(45%)</tspan></text>
				</g>
			</g>
		</g>
	</g>
</g>
<g>
	<g>
		<g>
			<g>
				<defs>
					<rect id="SVGID_25_" x="-163.6" y="15.9" width="1149.7" height="689.8"/>
				</defs>
				<clipPath id="SVGID_26_">
					<use xlink:href="#SVGID_25_"  style="overflow:visible;"/>
				</clipPath>
				<path class="st18" d="M505.1,625.2"/>
			</g>
			<g>
				<defs>
					<rect id="SVGID_27_" x="-163.6" y="15.9" width="1149.7" height="689.8"/>
				</defs>
				<clipPath id="SVGID_28_">
					<use xlink:href="#SVGID_27_"  style="overflow:visible;"/>
				</clipPath>
				<path class="st19" d="M525.8,634.6"/>
			</g>
		</g>
	</g>
</g>
<g>
	<g>
		<g>
			<g>
				<defs>
					<rect id="SVGID_29_" x="-167.8" y="20.5" width="1149.7" height="689.8"/>
				</defs>
				<clipPath id="SVGID_30_">
					<use xlink:href="#SVGID_29_"  style="overflow:visible;"/>
				</clipPath>
				<g class="st20">
					<text transform="matrix(1 0 0 1 541.6056 640.9091)" class="st15"><tspan x="0" y="0" class="st11 st12 st16">55-64</tspan><tspan x="0" y="28.8" class="st11 st12 st17">(1%)</tspan></text>
				</g>
			</g>
		</g>
	</g>
</g>
<g>
	<g>
		<g>
			<g>
				<defs>
					<rect id="SVGID_31_" x="-163.6" y="15.9" width="1149.7" height="689.8"/>
				</defs>
				<clipPath id="SVGID_32_">
					<use xlink:href="#SVGID_31_"  style="overflow:visible;"/>
				</clipPath>
				<g class="st21">
					<text transform="matrix(1 0 0 1 406.0427 652.4396)" class="st15"><tspan x="0" y="0" class="st11 st12 st16">45-54</tspan><tspan x="0" y="28.8" class="st11 st12 st17">(3%)</tspan></text>
				</g>
			</g>
		</g>
	</g>
</g>
<g>
	<g>
		<g>
			<g>
				<defs>
					<rect id="SVGID_33_" x="-163.6" y="15.9" width="1149.7" height="689.8"/>
				</defs>
				<clipPath id="SVGID_34_">
					<use xlink:href="#SVGID_33_"  style="overflow:visible;"/>
				</clipPath>
				<g class="st22">
					<text transform="matrix(1 0 0 1 248.8668 641.5897)" class="st15"><tspan x="0" y="0" class="st11 st12 st16">35-44</tspan><tspan x="0" y="28.8" class="st11 st12 st17">(13%)</tspan></text>
				</g>
			</g>
		</g>
	</g>
</g>
<g>
	<g>
		<g>
			<g>
				<defs>
					<rect id="SVGID_35_" x="-163.6" y="15.9" width="1149.7" height="689.8"/>
				</defs>
				<clipPath id="SVGID_36_">
					<use xlink:href="#SVGID_35_"  style="overflow:visible;"/>
				</clipPath>
				<g class="st23">
					<text transform="matrix(1 0 0 1 265.775 641.5897)" class="st11 st12 st24">-</text>
				</g>
			</g>
		</g>
	</g>
</g>
<g>
	<g>
		<g>
			<g>
				<defs>
					<rect id="SVGID_37_" x="-163.6" y="15.9" width="1149.7" height="689.8"/>
				</defs>
				<clipPath id="SVGID_38_">
					<use xlink:href="#SVGID_37_"  style="overflow:visible;"/>
				</clipPath>
				<g class="st25">
					<text transform="matrix(1 0 0 1 25.4698 319.0101)" class="st15"><tspan x="0" y="0" class="st26 st12 st16">16-24</tspan><tspan x="0" y="28.8" class="st26 st12 st17">(38%)</tspan></text>
				</g>
			</g>
		</g>
	</g>
</g>
<rect x="703" y="306" class="st27" width="13.4" height="13.4"/>
<rect x="229.2" y="625.2" class="st28" width="13.4" height="13.4"/>
<rect x="9.9" y="305.3" class="st29" width="12.8" height="12.8"/>
<rect x="386.3" y="636.3" class="st30" width="12.8" height="12.8"/>
<rect x="520" y="622.2" class="st31" width="14.1" height="14.1"/>
</svg>
