<?xml version="1.0" encoding="utf-8"?>
<!-- Generator: Adobe Illustrator 20.1.0, SVG Export Plug-In . SVG Version: 6.00 Build 0)  -->
<svg version="1.1" id="Layer_1" xmlns="http://www.w3.org/2000/svg" xmlns:xlink="http://www.w3.org/1999/xlink" x="0px" y="0px"
	 viewBox="0 0 605.2 363.7" style="enable-background:new 0 0 605.2 363.7;" xml:space="preserve">
<style type="text/css">
	.st0{clip-path:url(#SVGID_4_);fill:none;stroke:#D9D9D8;stroke-linejoin:round;stroke-miterlimit:10;}
	.st1{clip-path:url(#SVGID_6_);fill:#5D9BD3;}
	.st2{clip-path:url(#SVGID_8_);fill:#ED7D30;}
	.st3{clip-path:url(#SVGID_10_);fill:#A5A5A5;}
	.st4{clip-path:url(#SVGID_12_);fill:none;stroke:#D9D9D8;stroke-linejoin:round;stroke-miterlimit:10;}
	.st5{clip-path:url(#SVGID_14_);fill:none;stroke:#D9D9D8;stroke-linejoin:round;stroke-miterlimit:10;}
	.st6{clip-path:url(#SVGID_16_);}
	.st7{fill:#595A5A;}
	.st8{font-family:'Helvetica';}
	.st9{font-size:13.2246px;}
	.st10{clip-path:url(#SVGID_18_);}
	.st11{clip-path:url(#SVGID_20_);}
	.st12{clip-path:url(#SVGID_22_);}
	.st13{clip-path:url(#SVGID_24_);}
	.st14{clip-path:url(#SVGID_26_);}
	.st15{clip-path:url(#SVGID_28_);}
	.st16{clip-path:url(#SVGID_30_);}
	.st17{clip-path:url(#SVGID_32_);}
	.st18{clip-path:url(#SVGID_34_);}
	.st19{clip-path:url(#SVGID_36_);}
	.st20{clip-path:url(#SVGID_38_);}
	.st21{clip-path:url(#SVGID_40_);}
	.st22{clip-path:url(#SVGID_42_);}
	.st23{clip-path:url(#SVGID_44_);}
	.st24{clip-path:url(#SVGID_46_);}
	.st25{clip-path:url(#SVGID_48_);}
	.st26{clip-path:url(#SVGID_50_);}
	.st27{clip-path:url(#SVGID_52_);}
	.st28{clip-path:url(#SVGID_54_);fill:#5D9BD3;}
	.st29{clip-path:url(#SVGID_56_);}
	.st30{clip-path:url(#SVGID_58_);fill:#ED7D30;}
	.st31{clip-path:url(#SVGID_60_);}
	.st32{clip-path:url(#SVGID_62_);fill:#A5A5A5;}
	.st33{clip-path:url(#SVGID_64_);}
	.st34{fill:none;stroke:#D9D9D8;stroke-linejoin:round;stroke-miterlimit:10;}
	.st35{font-size:16px;}
</style>
<g>
	<g>
		<g>
			<g>
				<g>
					<g>
						<defs>
							<rect id="SVGID_1_" x="25" width="605.2" height="363.7"/>
						</defs>
						<clipPath id="SVGID_2_">
							<use xlink:href="#SVGID_1_"  style="overflow:visible;"/>
						</clipPath>
					</g>
				</g>
			</g>
		</g>
	</g>
	<g>
		<g>
			<g>
				<g>
					<g>
						<defs>
							<rect id="SVGID_3_" x="25" width="605.2" height="363.7"/>
						</defs>
						<clipPath id="SVGID_4_">
							<use xlink:href="#SVGID_3_"  style="overflow:visible;"/>
						</clipPath>
						<path class="st0" d="M87.8,261.7"/>
					</g>
				</g>
			</g>
		</g>
	</g>
</g>
<g>
	<g>
		<g>
			<g>
				<g>
					<g>
						<defs>
							<polygon id="SVGID_5_" points="87.3,298.6 616.9,298.6 618.3,55.4 88.6,55.4 							"/>
						</defs>
						<clipPath id="SVGID_6_">
							<use xlink:href="#SVGID_5_"  style="overflow:visible;"/>
						</clipPath>
						<path class="st1" d="M543.5,79.3h7.1v219.3h-7.1V79.3z M502.6,84.8h7.1v213.8h-7.1V84.8z M461.8,89.2h7.1v209.4h-7.1V89.2z
							 M421,91.4h7.1v207.2H421V91.4z M380.2,91.4h7.1v207.2h-7.1V91.4z M339.4,89.2h7.1v209.4h-7.1V89.2z M299.6,89.2h6.1v209.4
							h-6.1V89.2z M258.7,89.2h7.1v209.4h-7.1V89.2z M217.9,87h7.1v211.6h-7.1V87z M177.1,90.3h7.1v208.3h-7.1V90.3z M136.3,88.1
							h7.1v210.5h-7.1V88.1z"/>
					</g>
				</g>
			</g>
		</g>
	</g>
</g>
<g>
	<g>
		<g>
			<g>
				<g>
					<g>
						<defs>
							<polyline id="SVGID_7_" points="87.3,45.1 87.3,298.6 616.9,298.6 616.9,45.1 							"/>
						</defs>
						<clipPath id="SVGID_8_">
							<use xlink:href="#SVGID_7_"  style="overflow:visible;"/>
						</clipPath>
						<path class="st2" d="M552.6,186.2h7.1v112.4h-7.1V186.2z M511.8,189.5h7.1v109.1h-7.1V189.5z M471,191.7h7.1v106.9H471V191.7z
							 M430.2,192.8h7.1v105.8h-7.1V192.8z M389.4,192.8h7.1v105.8h-7.1V192.8z M348.5,191.7h7.1v106.9h-7.1V191.7z M307.7,190.6
							h7.1v108h-7.1V190.6z M266.9,190.6h7.1v108h-7.1V190.6z M227.1,190.6h7.1v108h-7.1V190.6z M186.3,192.8h7.1v105.8h-7.1V192.8z
							 M145.5,88.1h7.1v210.5h-7.1V88.1z"/>
					</g>
				</g>
			</g>
		</g>
	</g>
</g>
<g>
	<g>
		<g>
			<g>
				<g>
					<g>
						<defs>
							<polyline id="SVGID_9_" points="87.3,298.6 616.9,298.6 616.9,45.1 							"/>
						</defs>
						<clipPath id="SVGID_10_">
							<use xlink:href="#SVGID_9_"  style="overflow:visible;"/>
						</clipPath>
						<path class="st3" d="M561.8,190.6h6.1v108h-6.1V190.6z M521,193.9h7.1v104.7H521V193.9z M480.2,195h7.1v103.6h-7.1V195z
							 M439.4,196.1h7.1v102.5h-7.1V196.1z M398.5,197.2h7.1v101.4h-7.1V197.2z M357.7,196.1h7.1v102.5h-7.1V196.1z M316.9,196.1
							h7.1v102.5h-7.1V196.1z M276.1,196.1h7.1v102.5h-7.1V196.1z M235.3,193.9h7.1v104.7h-7.1V193.9z M195.5,196.1h7.1v102.5h-7.1
							V196.1z M154.6,195h7.1v103.6h-7.1V195z"/>
					</g>
				</g>
			</g>
		</g>
	</g>
</g>
<g>
	<g>
		<g>
			<g>
				<g>
					<g>
						<defs>
							<rect id="SVGID_11_" x="25" width="605.2" height="363.7"/>
						</defs>
						<clipPath id="SVGID_12_">
							<use xlink:href="#SVGID_11_"  style="overflow:visible;"/>
						</clipPath>
						<path class="st4" d="M617.4,298.1"/>
					</g>
				</g>
			</g>
		</g>
	</g>
	<g>
		<g>
			<g>
				<g>
					<g>
						<defs>
							<rect id="SVGID_13_" x="25" width="605.2" height="363.7"/>
						</defs>
						<clipPath id="SVGID_14_">
							<use xlink:href="#SVGID_13_"  style="overflow:visible;"/>
						</clipPath>
						<path class="st5" d="M87.8,298.1"/>
					</g>
				</g>
			</g>
		</g>
	</g>
	<g>
		<g>
			<g>
				<g>
					<g>
						<defs>
							<rect id="SVGID_15_" x="25" width="605.2" height="363.7"/>
						</defs>
						<clipPath id="SVGID_16_">
							<use xlink:href="#SVGID_15_"  style="overflow:visible;"/>
						</clipPath>
						<g class="st6">
							<text transform="matrix(0.926 0 0 1 69.4812 303.4131)" class="st7 st8 st9">0</text>
						</g>
					</g>
				</g>
			</g>
		</g>
	</g>
	<g>
		<g>
			<g>
				<g>
					<g>
						<defs>
							<rect id="SVGID_17_" x="25" width="605.2" height="363.7"/>
						</defs>
						<clipPath id="SVGID_18_">
							<use xlink:href="#SVGID_17_"  style="overflow:visible;"/>
						</clipPath>
						<g class="st10">
							<text transform="matrix(0.926 0 0 1 37.8255 267.3184)" class="st7 st8 st9">50</text>
							<text transform="matrix(0.926 0 0 1 52.0857 267.3184)" class="st7 st8 st9">,</text>
							<text transform="matrix(0.926 0 0 1 55.1419 267.3184)" class="st7 st8 st9">00</text>
							<text transform="matrix(0.926 0 0 1 69.4949 267.3184)" class="st7 st8 st9">0</text>
						</g>
					</g>
				</g>
			</g>
		</g>
	</g>
	<g>
		<g>
			<g>
				<g>
					<g>
						<defs>
							<rect id="SVGID_19_" x="25" width="605.2" height="363.7"/>
						</defs>
						<clipPath id="SVGID_20_">
							<use xlink:href="#SVGID_19_"  style="overflow:visible;"/>
						</clipPath>
						<g class="st11">
							<text transform="matrix(0.926 0 0 1 31.3602 231.2227)" class="st7 st8 st9">100</text>
							<text transform="matrix(0.926 0 0 1 52.7508 231.2227)" class="st7 st8 st9">,</text>
							<text transform="matrix(0.926 0 0 1 55.8992 231.2227)" class="st7 st8 st9">00</text>
							<text transform="matrix(0.926 0 0 1 70.1595 231.2227)" class="st7 st8 st9">0</text>
						</g>
					</g>
				</g>
			</g>
		</g>
	</g>
	<g>
		<g>
			<g>
				<g>
					<g>
						<defs>
							<rect id="SVGID_21_" x="25" width="605.2" height="363.7"/>
						</defs>
						<clipPath id="SVGID_22_">
							<use xlink:href="#SVGID_21_"  style="overflow:visible;"/>
						</clipPath>
						<g class="st12">
							<text transform="matrix(0.926 0 0 1 31.3602 195.1274)" class="st7 st8 st9">150</text>
							<text transform="matrix(0.926 0 0 1 52.7508 195.1274)" class="st7 st8 st9">,</text>
							<text transform="matrix(0.926 0 0 1 55.8992 195.1274)" class="st7 st8 st9">00</text>
							<text transform="matrix(0.926 0 0 1 70.1595 195.1274)" class="st7 st8 st9">0</text>
						</g>
					</g>
				</g>
			</g>
		</g>
	</g>
	<g>
		<g>
			<g>
				<g>
					<g>
						<defs>
							<rect id="SVGID_23_" x="25" width="605.2" height="363.7"/>
						</defs>
						<clipPath id="SVGID_24_">
							<use xlink:href="#SVGID_23_"  style="overflow:visible;"/>
						</clipPath>
						<g class="st13">
							<text transform="matrix(0.926 0 0 1 31.3602 159.0327)" class="st7 st8 st9">200</text>
							<text transform="matrix(0.926 0 0 1 52.7508 159.0327)" class="st7 st8 st9">,</text>
							<text transform="matrix(0.926 0 0 1 55.8992 159.0327)" class="st7 st8 st9">00</text>
							<text transform="matrix(0.926 0 0 1 70.1595 159.0327)" class="st7 st8 st9">0</text>
						</g>
					</g>
				</g>
			</g>
		</g>
	</g>
	<g>
		<g>
			<g>
				<g>
					<g>
						<defs>
							<rect id="SVGID_25_" x="25" width="605.2" height="363.7"/>
						</defs>
						<clipPath id="SVGID_26_">
							<use xlink:href="#SVGID_25_"  style="overflow:visible;"/>
						</clipPath>
						<g class="st14">
							<text transform="matrix(0.926 0 0 1 31.3602 122.938)" class="st7 st8 st9">250</text>
							<text transform="matrix(0.926 0 0 1 52.7508 122.938)" class="st7 st8 st9">,</text>
							<text transform="matrix(0.926 0 0 1 55.8992 122.938)" class="st7 st8 st9">00</text>
							<text transform="matrix(0.926 0 0 1 70.1595 122.938)" class="st7 st8 st9">0</text>
						</g>
					</g>
				</g>
			</g>
		</g>
	</g>
	<g>
		<g>
			<g>
				<g>
					<g>
						<defs>
							<rect id="SVGID_27_" x="25" width="605.2" height="363.7"/>
						</defs>
						<clipPath id="SVGID_28_">
							<use xlink:href="#SVGID_27_"  style="overflow:visible;"/>
						</clipPath>
						<g class="st15">
							<text transform="matrix(0.926 0 0 1 31.3602 86.8428)" class="st7 st8 st9">300</text>
							<text transform="matrix(0.926 0 0 1 52.7508 86.8428)" class="st7 st8 st9">,</text>
							<text transform="matrix(0.926 0 0 1 55.8992 86.8428)" class="st7 st8 st9">00</text>
							<text transform="matrix(0.926 0 0 1 70.1595 86.8428)" class="st7 st8 st9">0</text>
						</g>
					</g>
				</g>
			</g>
		</g>
	</g>
	<g>
		<g>
			<g>
				<g>
					<g>
						<defs>
							<rect id="SVGID_29_" x="25" width="605.2" height="363.7"/>
						</defs>
						<clipPath id="SVGID_30_">
							<use xlink:href="#SVGID_29_"  style="overflow:visible;"/>
						</clipPath>
						<g class="st16">
							<text transform="matrix(0.926 0 0 1 31.3602 50.7485)" class="st7 st8 st9">350</text>
							<text transform="matrix(0.926 0 0 1 52.7508 50.7485)" class="st7 st8 st9">,</text>
							<text transform="matrix(0.926 0 0 1 55.8992 50.7485)" class="st7 st8 st9">00</text>
							<text transform="matrix(0.926 0 0 1 70.1595 50.7485)" class="st7 st8 st9">0</text>
						</g>
					</g>
				</g>
			</g>
		</g>
	</g>
	<g>
		<g>
			<g>
				<g>
					<g>
						<defs>
							<rect id="SVGID_31_" x="25" width="605.2" height="363.7"/>
						</defs>
						<clipPath id="SVGID_32_">
							<use xlink:href="#SVGID_31_"  style="overflow:visible;"/>
						</clipPath>
						<g class="st17">
							<text transform="matrix(0.926 0 0 1 132.806 319.9121)" class="st7 st8 st9">2003</text>
						</g>
					</g>
				</g>
			</g>
		</g>
	</g>
	<g>
		<g>
			<g>
				<g>
					<g>
						<defs>
							<rect id="SVGID_33_" x="25" width="605.2" height="363.7"/>
						</defs>
						<clipPath id="SVGID_34_">
							<use xlink:href="#SVGID_33_"  style="overflow:visible;"/>
						</clipPath>
						<g class="st18">
							<text transform="matrix(0.926 0 0 1 177.5105 319.9121)" class="st7 st8 st9">2004</text>
						</g>
					</g>
				</g>
			</g>
		</g>
	</g>
	<g>
		<g>
			<g>
				<g>
					<g>
						<defs>
							<rect id="SVGID_35_" x="25" width="605.2" height="363.7"/>
						</defs>
						<clipPath id="SVGID_36_">
							<use xlink:href="#SVGID_35_"  style="overflow:visible;"/>
						</clipPath>
						<g class="st19">
							<text transform="matrix(0.926 0 0 1 217.2156 319.9121)" class="st7 st8 st9">2005</text>
						</g>
					</g>
				</g>
			</g>
		</g>
	</g>
	<g>
		<g>
			<g>
				<g>
					<g>
						<defs>
							<rect id="SVGID_37_" x="25" width="605.2" height="363.7"/>
						</defs>
						<clipPath id="SVGID_38_">
							<use xlink:href="#SVGID_37_"  style="overflow:visible;"/>
						</clipPath>
						<g class="st20">
							<text transform="matrix(0.926 0 0 1 258.9202 319.9121)" class="st7 st8 st9">2006</text>
						</g>
					</g>
				</g>
			</g>
		</g>
	</g>
	<g>
		<g>
			<g>
				<g>
					<g>
						<defs>
							<rect id="SVGID_39_" x="25" width="605.2" height="363.7"/>
						</defs>
						<clipPath id="SVGID_40_">
							<use xlink:href="#SVGID_39_"  style="overflow:visible;"/>
						</clipPath>
						<g class="st21">
							<text transform="matrix(0.926 0 0 1 301.6248 319.9121)" class="st7 st8 st9">2007</text>
						</g>
					</g>
				</g>
			</g>
		</g>
	</g>
	<g>
		<g>
			<g>
				<g>
					<g>
						<defs>
							<rect id="SVGID_41_" x="25" width="605.2" height="363.7"/>
						</defs>
						<clipPath id="SVGID_42_">
							<use xlink:href="#SVGID_41_"  style="overflow:visible;"/>
						</clipPath>
						<g class="st22">
							<text transform="matrix(0.926 0 0 1 341.3299 319.9121)" class="st7 st8 st9">2008</text>
						</g>
					</g>
				</g>
			</g>
		</g>
	</g>
	<g>
		<g>
			<g>
				<g>
					<g>
						<defs>
							<rect id="SVGID_43_" x="25" width="605.2" height="363.7"/>
						</defs>
						<clipPath id="SVGID_44_">
							<use xlink:href="#SVGID_43_"  style="overflow:visible;"/>
						</clipPath>
						<g class="st23">
							<text transform="matrix(0.926 0 0 1 380.034 319.9121)" class="st7 st8 st9">2009</text>
						</g>
					</g>
				</g>
			</g>
		</g>
	</g>
	<g>
		<g>
			<g>
				<g>
					<g>
						<defs>
							<rect id="SVGID_45_" x="25" width="605.2" height="363.7"/>
						</defs>
						<clipPath id="SVGID_46_">
							<use xlink:href="#SVGID_45_"  style="overflow:visible;"/>
						</clipPath>
						<g class="st24">
							<text transform="matrix(0.926 0 0 1 422.7391 319.9121)" class="st7 st8 st9">2010</text>
						</g>
					</g>
				</g>
			</g>
		</g>
	</g>
	<g>
		<g>
			<g>
				<g>
					<g>
						<defs>
							<rect id="SVGID_47_" x="25" width="605.2" height="363.7"/>
						</defs>
						<clipPath id="SVGID_48_">
							<use xlink:href="#SVGID_47_"  style="overflow:visible;"/>
						</clipPath>
						<g class="st25">
							<text transform="matrix(0.926 0 0 1 462.5145 319.9121)" class="st7 st8 st9">2011</text>
						</g>
					</g>
				</g>
			</g>
		</g>
	</g>
	<g>
		<g>
			<g>
				<g>
					<g>
						<defs>
							<rect id="SVGID_49_" x="25" width="605.2" height="363.7"/>
						</defs>
						<clipPath id="SVGID_50_">
							<use xlink:href="#SVGID_49_"  style="overflow:visible;"/>
						</clipPath>
						<g class="st26">
							<text transform="matrix(0.926 0 0 1 502.0867 319.9121)" class="st7 st8 st9">2012</text>
						</g>
					</g>
				</g>
			</g>
		</g>
	</g>
	<g>
		<g>
			<g>
				<g>
					<g>
						<defs>
							<rect id="SVGID_51_" x="25" width="605.2" height="363.7"/>
						</defs>
						<clipPath id="SVGID_52_">
							<use xlink:href="#SVGID_51_"  style="overflow:visible;"/>
						</clipPath>
						<g class="st27">
							<text transform="matrix(0.926 0 0 1 543.7947 319.9121)" class="st7 st8 st9">2013</text>
						</g>
					</g>
				</g>
			</g>
		</g>
	</g>
	<g>
		<g>
			<g>
				<g>
					<g>
						<defs>
							<rect id="SVGID_53_" x="25" width="605.2" height="363.7"/>
						</defs>
						<clipPath id="SVGID_54_">
							<use xlink:href="#SVGID_53_"  style="overflow:visible;"/>
						</clipPath>
						<rect x="202.6" y="339.4" class="st28" width="7.1" height="6.6"/>
					</g>
				</g>
			</g>
		</g>
	</g>
	<g>
		<g>
			<g>
				<g>
					<g>
						<defs>
							<rect id="SVGID_55_" x="25" width="605.2" height="363.7"/>
						</defs>
						<clipPath id="SVGID_56_">
							<use xlink:href="#SVGID_55_"  style="overflow:visible;"/>
						</clipPath>
						<g class="st29">
							<text transform="matrix(0.926 0 0 1 212.4568 347.8359)" class="st7 st8 st9">B</text>
							<text transform="matrix(0.926 0 0 1 220.6058 347.8359)" class="st7 st8 st9">o</text>
							<text transform="matrix(0.926 0 0 1 227.7356 347.8359)" class="st7 st8 st9">t</text>
							<text transform="matrix(0.926 0 0 1 230.7918 347.8359)" class="st7 st8 st9">h</text>
							<text transform="matrix(0.926 0 0 1 238.0145 347.8359)" class="st7 st8 st9"> </text>
							<text transform="matrix(0.926 0 0 1 241.0701 347.8359)" class="st7 st8 st9">s</text>
							<text transform="matrix(0.926 0 0 1 247.1819 347.8359)" class="st7 st8 st9">e</text>
							<text transform="matrix(0.926 0 0 1 254.3123 347.8359)" class="st7 st8 st9">x</text>
							<text transform="matrix(0.926 0 0 1 260.4236 347.8359)" class="st7 st8 st9">e</text>
							<text transform="matrix(0.926 0 0 1 267.554 347.8359)" class="st7 st8 st9">s</text>
						</g>
					</g>
				</g>
			</g>
		</g>
	</g>
	<g>
		<g>
			<g>
				<g>
					<g>
						<defs>
							<rect id="SVGID_57_" x="25" width="605.2" height="363.7"/>
						</defs>
						<clipPath id="SVGID_58_">
							<use xlink:href="#SVGID_57_"  style="overflow:visible;"/>
						</clipPath>
						<rect x="288.3" y="339.4" class="st30" width="7.1" height="6.6"/>
					</g>
				</g>
			</g>
		</g>
	</g>
	<g>
		<g>
			<g>
				<g>
					<g>
						<defs>
							<rect id="SVGID_59_" x="25" width="605.2" height="363.7"/>
						</defs>
						<clipPath id="SVGID_60_">
							<use xlink:href="#SVGID_59_"  style="overflow:visible;"/>
						</clipPath>
						<g class="st31">
							<text transform="matrix(0.926 0 0 1 298.0037 347.8359)" class="st7 st8 st9">B</text>
							<text transform="matrix(0.926 0 0 1 306.1526 347.8359)" class="st7 st8 st9">la</text>
							<text transform="matrix(0.926 0 0 1 316.3387 347.8359)" class="st7 st8 st9">ck</text>
							<text transform="matrix(0.926 0 0 1 328.6541 347.8359)" class="st7 st8 st9"> </text>
							<text transform="matrix(0.926 0 0 1 331.7103 347.8359)" class="st7 st8 st9">M</text>
							<text transform="matrix(0.926 0 0 1 341.8963 347.8359)" class="st7 st8 st9">al</text>
							<text transform="matrix(0.926 0 0 1 352.0818 347.8359)" class="st7 st8 st9">e</text>
						</g>
					</g>
				</g>
			</g>
		</g>
	</g>
	<g>
		<g>
			<g>
				<g>
					<g>
						<defs>
							<rect id="SVGID_61_" x="25" width="605.2" height="363.7"/>
						</defs>
						<clipPath id="SVGID_62_">
							<use xlink:href="#SVGID_61_"  style="overflow:visible;"/>
						</clipPath>
						<rect x="373" y="339.4" class="st32" width="7.1" height="6.6"/>
					</g>
				</g>
			</g>
		</g>
	</g>
	<g>
		<g>
			<g>
				<g>
					<g>
						<defs>
							<rect id="SVGID_63_" x="25" width="605.2" height="363.7"/>
						</defs>
						<clipPath id="SVGID_64_">
							<use xlink:href="#SVGID_63_"  style="overflow:visible;"/>
						</clipPath>
						<g class="st33">
							<text transform="matrix(0.926 0 0 1 382.8514 347.8359)" class="st7 st8 st9">B</text>
							<text transform="matrix(0.926 0 0 1 390.9998 347.8359)" class="st7 st8 st9">la</text>
							<text transform="matrix(0.926 0 0 1 401.1863 347.8359)" class="st7 st8 st9">ck</text>
							<text transform="matrix(0.926 0 0 1 413.5018 347.8359)" class="st7 st8 st9"> F</text>
							<text transform="matrix(0.926 0 0 1 423.6883 347.8359)" class="st7 st8 st9">e</text>
							<text transform="matrix(0.926 0 0 1 430.8182 347.8359)" class="st7 st8 st9">m</text>
							<text transform="matrix(0.926 0 0 1 441.0047 347.8359)" class="st7 st8 st9">al</text>
							<text transform="matrix(0.926 0 0 1 451.1902 347.8359)" class="st7 st8 st9">e</text>
						</g>
					</g>
				</g>
			</g>
		</g>
	</g>
	<g>
		<g>
			<g>
				<g>
					<g>
						<path class="st34" d="M629.6,0.5"/>
					</g>
				</g>
			</g>
		</g>
	</g>
</g>
<text transform="matrix(1 0 0 1 195.0379 32.3916)" class="st8 st35">Black Death Rates by Race and Sex</text>
</svg>
