<?xml version="1.0" encoding="utf-8"?>
<!-- Generator: Adobe Illustrator 20.1.0, SVG Export Plug-In . SVG Version: 6.00 Build 0)  -->
<svg version="1.1" id="Layer_1" xmlns="http://www.w3.org/2000/svg" xmlns:xlink="http://www.w3.org/1999/xlink" x="0px" y="0px"
	 viewBox="0 0 612 397.3" style="enable-background:new 0 0 612 397.3;" xml:space="preserve">
<style type="text/css">
	.st0{clip-path:url(#SVGID_2_);fill:#FFFFFF;fill-opacity:0;}
	.st1{clip-path:url(#SVGID_4_);fill:#FFFFFF;}
	.st2{clip-path:url(#SVGID_6_);fill:none;stroke:#D9D9D8;stroke-linejoin:round;stroke-miterlimit:10;}
	.st3{clip-path:url(#SVGID_8_);fill:#5D9BD3;}
	.st4{clip-path:url(#SVGID_10_);fill:#ED7D30;}
	.st5{clip-path:url(#SVGID_12_);fill:#A5A5A5;}
	.st6{clip-path:url(#SVGID_14_);fill:none;stroke:#D9D9D8;stroke-linejoin:round;stroke-miterlimit:10;}
	.st7{clip-path:url(#SVGID_16_);fill:none;stroke:#D9D9D8;stroke-linejoin:round;stroke-miterlimit:10;}
	.st8{clip-path:url(#SVGID_18_);}
	.st9{fill:#595A5A;}
	.st10{font-family:'Helvetica';}
	.st11{font-size:12.9736px;}
	.st12{clip-path:url(#SVGID_20_);}
	.st13{clip-path:url(#SVGID_22_);}
	.st14{clip-path:url(#SVGID_24_);}
	.st15{clip-path:url(#SVGID_26_);}
	.st16{clip-path:url(#SVGID_28_);}
	.st17{clip-path:url(#SVGID_30_);}
	.st18{clip-path:url(#SVGID_32_);}
	.st19{clip-path:url(#SVGID_34_);}
	.st20{clip-path:url(#SVGID_36_);}
	.st21{clip-path:url(#SVGID_38_);}
	.st22{clip-path:url(#SVGID_40_);}
	.st23{clip-path:url(#SVGID_42_);}
	.st24{clip-path:url(#SVGID_44_);}
	.st25{clip-path:url(#SVGID_46_);}
	.st26{clip-path:url(#SVGID_48_);}
	.st27{clip-path:url(#SVGID_50_);}
	.st28{clip-path:url(#SVGID_52_);}
	.st29{clip-path:url(#SVGID_54_);}
	.st30{font-size:15.1359px;}
	.st31{clip-path:url(#SVGID_56_);fill:#5D9BD3;}
	.st32{clip-path:url(#SVGID_58_);}
	.st33{clip-path:url(#SVGID_60_);fill:#ED7D30;}
	.st34{clip-path:url(#SVGID_62_);}
	.st35{clip-path:url(#SVGID_64_);fill:#A5A5A5;}
	.st36{clip-path:url(#SVGID_66_);}
	.st37{clip-path:url(#SVGID_68_);}
	.st38{fill:none;}
	.st39{font-size:16px;}
</style>
<g>
	<g>
		<g>
			<g>
				<g>
					<defs>
						<rect id="SVGID_1_" x="-1.9" width="613.9" height="397.9"/>
					</defs>
					<clipPath id="SVGID_2_">
						<use xlink:href="#SVGID_1_"  style="overflow:visible;"/>
					</clipPath>
					<rect x="-1.9" class="st0" width="613.9" height="397.9"/>
				</g>
			</g>
		</g>
	</g>
	<g>
		<g>
			<g>
				<g>
					<defs>
						<rect id="SVGID_3_" x="-1.9" width="613.9" height="397.9"/>
					</defs>
					<clipPath id="SVGID_4_">
						<use xlink:href="#SVGID_3_"  style="overflow:visible;"/>
					</clipPath>
					<rect x="-1.9" class="st1" width="613.9" height="397.9"/>
				</g>
			</g>
		</g>
	</g>
	<g>
		<g>
			<g>
				<g>
					<defs>
						<rect id="SVGID_5_" x="-1.9" width="613.9" height="397.9"/>
					</defs>
					<clipPath id="SVGID_6_">
						<use xlink:href="#SVGID_5_"  style="overflow:visible;"/>
					</clipPath>
					<path class="st2" d="M81.8,285.9"/>
				</g>
			</g>
		</g>
	</g>
</g>
<g>
	<g>
		<g>
			<g>
				<g>
					<defs>
						<rect id="SVGID_7_" x="81.2" y="44.3" width="515.5" height="289.7"/>
					</defs>
					<clipPath id="SVGID_8_">
						<use xlink:href="#SVGID_7_"  style="overflow:visible;"/>
					</clipPath>
					<path class="st3" d="M525.3,83.2h7V334h-7V83.2z M485.5,88.6h7V334h-7V88.6z M445.6,90.8h7v243.3h-7V90.8z M405.8,96.2h7V334
						h-7V96.2z M367.1,98.4h7v235.7h-7V98.4z M327.3,95.1h7V334h-7V95.1z M287.5,100.5h7V334h-7V100.5z M247.6,99.5h7v234.6h-7V99.5
						z M207.8,97.3h7v236.8h-7V97.3z M169.1,102.7h5.9v231.4h-5.9V102.7z M129.3,97.3h7v236.8h-7V97.3z"/>
				</g>
			</g>
		</g>
	</g>
</g>
<g>
	<g>
		<g>
			<g>
				<g>
					<defs>
						<rect id="SVGID_9_" x="81.2" y="44.3" width="515.5" height="289.7"/>
					</defs>
					<clipPath id="SVGID_10_">
						<use xlink:href="#SVGID_9_"  style="overflow:visible;"/>
					</clipPath>
					<path class="st4" d="M533.5,207.6h7v126.5h-7V207.6z M494.8,210.8h5.9V334h-5.9V210.8z M455,213h7v121.1h-7V213z M415.2,215.1
						h7V334h-7V215.1z M375.3,216.2h7V334h-7V216.2z M335.5,215.1h7V334h-7V215.1z M295.7,217.3h7v116.8h-7V217.3z M257,217.3h7
						v116.8h-7V217.3z M217.2,217.3h7v116.8h-7V217.3z M177.3,219.5h7v114.6h-7V219.5z M137.5,217.3h7v116.8h-7V217.3z"/>
				</g>
			</g>
		</g>
	</g>
</g>
<g>
	<g>
		<g>
			<g>
				<g>
					<defs>
						<rect id="SVGID_11_" x="81.2" y="44.3" width="515.5" height="289.7"/>
					</defs>
					<clipPath id="SVGID_12_">
						<use xlink:href="#SVGID_11_"  style="overflow:visible;"/>
					</clipPath>
					<path class="st5" d="M542.9,209.7h7V334h-7V209.7z M503,210.8h7V334h-7V210.8z M463.2,211.9h7v122.2h-7V211.9z M423.4,214.1h7
						v120h-7V214.1z M384.7,216.2h5.9V334h-5.9V216.2z M344.9,214.1h7v120h-7V214.1z M305,216.2h7V334h-7V216.2z M265.2,215.1h7V334
						h-7V215.1z M225.4,214.1h7v120h-7V214.1z M186.7,216.2h5.9V334h-5.9V216.2z M146.9,214.1h7v120h-7V214.1z"/>
				</g>
			</g>
		</g>
	</g>
</g>
<g>
	<g>
		<g>
			<g>
				<g>
					<defs>
						<rect id="SVGID_13_" x="-1.9" width="613.9" height="397.9"/>
					</defs>
					<clipPath id="SVGID_14_">
						<use xlink:href="#SVGID_13_"  style="overflow:visible;"/>
					</clipPath>
					<path class="st6" d="M597.4,333.5"/>
				</g>
			</g>
			<g>
				<g>
					<defs>
						<rect id="SVGID_15_" x="-1.9" width="613.9" height="397.9"/>
					</defs>
					<clipPath id="SVGID_16_">
						<use xlink:href="#SVGID_15_"  style="overflow:visible;"/>
					</clipPath>
					<path class="st7" d="M81.8,333.5"/>
				</g>
			</g>
		</g>
	</g>
	<g>
		<g>
			<g>
				<g>
					<defs>
						<rect id="SVGID_17_" x="-1.9" width="613.9" height="397.9"/>
					</defs>
					<clipPath id="SVGID_18_">
						<use xlink:href="#SVGID_17_"  style="overflow:visible;"/>
					</clipPath>
					<g class="st8">
						<text transform="matrix(1.0837 0 0 1 60.2217 338.7658)" class="st9 st10 st11">0</text>
					</g>
				</g>
			</g>
		</g>
	</g>
	<g>
		<g>
			<g>
				<g>
					<defs>
						<rect id="SVGID_19_" x="-1.9" width="613.9" height="397.9"/>
					</defs>
					<clipPath id="SVGID_20_">
						<use xlink:href="#SVGID_19_"  style="overflow:visible;"/>
					</clipPath>
					<g class="st12">
						<text transform="matrix(1.0837 0 0 1 16.4541 290.6066)" class="st9 st10 st11">500</text>
						<text transform="matrix(1.0837 0 0 1 41.0537 290.6066)" class="st9 st10 st11">,</text>
						<text transform="matrix(1.0837 0 0 1 44.6304 290.6066)" class="st9 st10 st11">00</text>
						<text transform="matrix(1.0837 0 0 1 60.9941 290.6066)" class="st9 st10 st11">0</text>
					</g>
				</g>
			</g>
		</g>
	</g>
	<g>
		<g>
			<g>
				<g>
					<defs>
						<rect id="SVGID_21_" x="-1.9" width="613.9" height="397.9"/>
					</defs>
					<clipPath id="SVGID_22_">
						<use xlink:href="#SVGID_21_"  style="overflow:visible;"/>
					</clipPath>
					<g class="st13">
						<text transform="matrix(1.0837 0 0 1 4.7324 242.4484)" class="st9 st10 st11">1</text>
						<text transform="matrix(1.0837 0 0 1 12.9683 242.4484)" class="st9 st10 st11">,</text>
						<text transform="matrix(1.0837 0 0 1 16.436 242.4484)" class="st9 st10 st11">000</text>
						<text transform="matrix(1.0837 0 0 1 41.0361 242.4484)" class="st9 st10 st11">,</text>
						<text transform="matrix(1.0837 0 0 1 44.6123 242.4484)" class="st9 st10 st11">00</text>
						<text transform="matrix(1.0837 0 0 1 60.9766 242.4484)" class="st9 st10 st11">0</text>
					</g>
				</g>
			</g>
		</g>
	</g>
	<g>
		<g>
			<g>
				<g>
					<defs>
						<rect id="SVGID_23_" x="-1.9" width="613.9" height="397.9"/>
					</defs>
					<clipPath id="SVGID_24_">
						<use xlink:href="#SVGID_23_"  style="overflow:visible;"/>
					</clipPath>
					<g class="st14">
						<text transform="matrix(1.0837 0 0 1 4.7324 194.2888)" class="st9 st10 st11">1</text>
						<text transform="matrix(1.0837 0 0 1 12.9683 194.2888)" class="st9 st10 st11">,</text>
						<text transform="matrix(1.0837 0 0 1 16.436 194.2888)" class="st9 st10 st11">500</text>
						<text transform="matrix(1.0837 0 0 1 41.0361 194.2888)" class="st9 st10 st11">,</text>
						<text transform="matrix(1.0837 0 0 1 44.6123 194.2888)" class="st9 st10 st11">00</text>
						<text transform="matrix(1.0837 0 0 1 60.9766 194.2888)" class="st9 st10 st11">0</text>
					</g>
				</g>
			</g>
		</g>
	</g>
	<g>
		<g>
			<g>
				<g>
					<defs>
						<rect id="SVGID_25_" x="-1.9" width="613.9" height="397.9"/>
					</defs>
					<clipPath id="SVGID_26_">
						<use xlink:href="#SVGID_25_"  style="overflow:visible;"/>
					</clipPath>
					<g class="st15">
						<text transform="matrix(1.0837 0 0 1 4.7324 146.1301)" class="st9 st10 st11">2</text>
						<text transform="matrix(1.0837 0 0 1 12.9683 146.1301)" class="st9 st10 st11">,</text>
						<text transform="matrix(1.0837 0 0 1 16.436 146.1301)" class="st9 st10 st11">000</text>
						<text transform="matrix(1.0837 0 0 1 41.0361 146.1301)" class="st9 st10 st11">,</text>
						<text transform="matrix(1.0837 0 0 1 44.6123 146.1301)" class="st9 st10 st11">00</text>
						<text transform="matrix(1.0837 0 0 1 60.9766 146.1301)" class="st9 st10 st11">0</text>
					</g>
				</g>
			</g>
		</g>
	</g>
	<g>
		<g>
			<g>
				<g>
					<defs>
						<rect id="SVGID_27_" x="-1.9" width="613.9" height="397.9"/>
					</defs>
					<clipPath id="SVGID_28_">
						<use xlink:href="#SVGID_27_"  style="overflow:visible;"/>
					</clipPath>
					<g class="st16">
						<text transform="matrix(1.0837 0 0 1 4.7324 97.9714)" class="st9 st10 st11">2</text>
						<text transform="matrix(1.0837 0 0 1 12.9683 97.9714)" class="st9 st10 st11">,</text>
						<text transform="matrix(1.0837 0 0 1 16.436 97.9714)" class="st9 st10 st11">500</text>
						<text transform="matrix(1.0837 0 0 1 41.0361 97.9714)" class="st9 st10 st11">,</text>
						<text transform="matrix(1.0837 0 0 1 44.6123 97.9714)" class="st9 st10 st11">00</text>
						<text transform="matrix(1.0837 0 0 1 60.9766 97.9714)" class="st9 st10 st11">0</text>
					</g>
				</g>
			</g>
		</g>
	</g>
	<g>
		<g>
			<g>
				<g>
					<defs>
						<rect id="SVGID_29_" x="-1.9" width="613.9" height="397.9"/>
					</defs>
					<clipPath id="SVGID_30_">
						<use xlink:href="#SVGID_29_"  style="overflow:visible;"/>
					</clipPath>
					<g class="st17">
						<text transform="matrix(1.0837 0 0 1 4.7324 49.8132)" class="st9 st10 st11">3</text>
						<text transform="matrix(1.0837 0 0 1 12.9683 49.8132)" class="st9 st10 st11">,</text>
						<text transform="matrix(1.0837 0 0 1 16.436 49.8132)" class="st9 st10 st11">000</text>
						<text transform="matrix(1.0837 0 0 1 41.0361 49.8132)" class="st9 st10 st11">,</text>
						<text transform="matrix(1.0837 0 0 1 44.6123 49.8132)" class="st9 st10 st11">00</text>
						<text transform="matrix(1.0837 0 0 1 60.9766 49.8132)" class="st9 st10 st11">0</text>
					</g>
				</g>
			</g>
		</g>
	</g>
	<g>
		<g>
			<g>
				<g>
					<defs>
						<rect id="SVGID_31_" x="-1.9" width="613.9" height="397.9"/>
					</defs>
					<clipPath id="SVGID_32_">
						<use xlink:href="#SVGID_31_"  style="overflow:visible;"/>
					</clipPath>
					<g class="st18">
						<text transform="matrix(1.0837 0 0 1 124.9336 354.9514)" class="st9 st10 st11">200</text>
						<text transform="matrix(1.0837 0 0 1 149.5337 354.9514)" class="st9 st10 st11">3</text>
					</g>
				</g>
			</g>
		</g>
	</g>
	<g>
		<g>
			<g>
				<g>
					<defs>
						<rect id="SVGID_33_" x="-1.9" width="613.9" height="397.9"/>
					</defs>
					<clipPath id="SVGID_34_">
						<use xlink:href="#SVGID_33_"  style="overflow:visible;"/>
					</clipPath>
					<g class="st19">
						<text transform="matrix(1.0837 0 0 1 164.5459 354.9514)" class="st9 st10 st11">200</text>
						<text transform="matrix(1.0837 0 0 1 189.1455 354.9514)" class="st9 st10 st11">4</text>
					</g>
				</g>
			</g>
		</g>
	</g>
	<g>
		<g>
			<g>
				<g>
					<defs>
						<rect id="SVGID_35_" x="-1.9" width="613.9" height="397.9"/>
					</defs>
					<clipPath id="SVGID_36_">
						<use xlink:href="#SVGID_35_"  style="overflow:visible;"/>
					</clipPath>
					<g class="st20">
						<text transform="matrix(1.0837 0 0 1 204.1582 354.9514)" class="st9 st10 st11">200</text>
						<text transform="matrix(1.0837 0 0 1 228.7578 354.9514)" class="st9 st10 st11">5</text>
					</g>
				</g>
			</g>
		</g>
	</g>
	<g>
		<g>
			<g>
				<g>
					<defs>
						<rect id="SVGID_37_" x="-1.9" width="613.9" height="397.9"/>
					</defs>
					<clipPath id="SVGID_38_">
						<use xlink:href="#SVGID_37_"  style="overflow:visible;"/>
					</clipPath>
					<g class="st21">
						<text transform="matrix(1.0837 0 0 1 243.7705 354.9514)" class="st9 st10 st11">200</text>
						<text transform="matrix(1.0837 0 0 1 268.3701 354.9514)" class="st9 st10 st11">6</text>
					</g>
				</g>
			</g>
		</g>
	</g>
	<g>
		<g>
			<g>
				<g>
					<defs>
						<rect id="SVGID_39_" x="-1.9" width="613.9" height="397.9"/>
					</defs>
					<clipPath id="SVGID_40_">
						<use xlink:href="#SVGID_39_"  style="overflow:visible;"/>
					</clipPath>
					<g class="st22">
						<text transform="matrix(1.0837 0 0 1 283.3828 354.9514)" class="st9 st10 st11">200</text>
						<text transform="matrix(1.0837 0 0 1 307.9824 354.9514)" class="st9 st10 st11">7</text>
					</g>
				</g>
			</g>
		</g>
	</g>
	<g>
		<g>
			<g>
				<g>
					<defs>
						<rect id="SVGID_41_" x="-1.9" width="613.9" height="397.9"/>
					</defs>
					<clipPath id="SVGID_42_">
						<use xlink:href="#SVGID_41_"  style="overflow:visible;"/>
					</clipPath>
					<g class="st23">
						<text transform="matrix(1.0837 0 0 1 322.9961 354.9514)" class="st9 st10 st11">200</text>
						<text transform="matrix(1.0837 0 0 1 347.5957 354.9514)" class="st9 st10 st11">8</text>
					</g>
				</g>
			</g>
		</g>
	</g>
	<g>
		<g>
			<g>
				<g>
					<defs>
						<rect id="SVGID_43_" x="-1.9" width="613.9" height="397.9"/>
					</defs>
					<clipPath id="SVGID_44_">
						<use xlink:href="#SVGID_43_"  style="overflow:visible;"/>
					</clipPath>
					<g class="st24">
						<text transform="matrix(1.0837 0 0 1 362.6084 354.9514)" class="st9 st10 st11">200</text>
						<text transform="matrix(1.0837 0 0 1 387.208 354.9514)" class="st9 st10 st11">9</text>
					</g>
				</g>
			</g>
		</g>
	</g>
	<g>
		<g>
			<g>
				<g>
					<defs>
						<rect id="SVGID_45_" x="-1.9" width="613.9" height="397.9"/>
					</defs>
					<clipPath id="SVGID_46_">
						<use xlink:href="#SVGID_45_"  style="overflow:visible;"/>
					</clipPath>
					<g class="st25">
						<text transform="matrix(1.0837 0 0 1 402.2207 354.9514)" class="st9 st10 st11">201</text>
						<text transform="matrix(1.0837 0 0 1 426.8203 354.9514)" class="st9 st10 st11">0</text>
					</g>
				</g>
			</g>
		</g>
	</g>
	<g>
		<g>
			<g>
				<g>
					<defs>
						<rect id="SVGID_47_" x="-1.9" width="613.9" height="397.9"/>
					</defs>
					<clipPath id="SVGID_48_">
						<use xlink:href="#SVGID_47_"  style="overflow:visible;"/>
					</clipPath>
					<g class="st26">
						<text transform="matrix(1.0837 0 0 1 441.8359 354.9514)" class="st9 st10 st11">20</text>
						<text transform="matrix(1.0837 0 0 1 458.1992 354.9514)" class="st9 st10 st11">1</text>
						<text transform="matrix(1.0837 0 0 1 465.2441 354.9514)" class="st9 st10 st11">1</text>
					</g>
				</g>
			</g>
		</g>
	</g>
	<g>
		<g>
			<g>
				<g>
					<defs>
						<rect id="SVGID_49_" x="-1.9" width="613.9" height="397.9"/>
					</defs>
					<clipPath id="SVGID_50_">
						<use xlink:href="#SVGID_49_"  style="overflow:visible;"/>
					</clipPath>
					<g class="st27">
						<text transform="matrix(1.0837 0 0 1 481.4453 354.9514)" class="st9 st10 st11">201</text>
						<text transform="matrix(1.0837 0 0 1 506.0449 354.9514)" class="st9 st10 st11">2</text>
					</g>
				</g>
			</g>
		</g>
	</g>
	<g>
		<g>
			<g>
				<g>
					<defs>
						<rect id="SVGID_51_" x="-1.9" width="613.9" height="397.9"/>
					</defs>
					<clipPath id="SVGID_52_">
						<use xlink:href="#SVGID_51_"  style="overflow:visible;"/>
					</clipPath>
					<g class="st28">
						<text transform="matrix(1.0837 0 0 1 521.0576 354.9514)" class="st9 st10 st11">201</text>
						<text transform="matrix(1.0837 0 0 1 545.6572 354.9514)" class="st9 st10 st11">3</text>
					</g>
				</g>
			</g>
		</g>
	</g>
	<g>
		<g>
			<g>
				<g>
					<defs>
						<rect id="SVGID_53_" x="-1.9" width="613.9" height="397.9"/>
					</defs>
					<clipPath id="SVGID_54_">
						<use xlink:href="#SVGID_53_"  style="overflow:visible;"/>
					</clipPath>
					<g class="st29">
						<text transform="matrix(1.0837 0 0 1 274.6196 28.7932)" class="st9 st10 st30"> </text>
						<text transform="matrix(1.0837 0 0 1 300.3032 28.7932)" class="st9 st10 st30"> </text>
						<text transform="matrix(1.0837 0 0 1 321.4355 28.7932)" class="st9 st10 st30"> </text>
						<text transform="matrix(1.0837 0 0 1 407.1562 28.7932)" class="st9 st10 st30"> </text>
					</g>
				</g>
			</g>
		</g>
	</g>
	<g>
		<g>
			<g>
				<g>
					<defs>
						<rect id="SVGID_55_" x="-1.9" width="613.9" height="397.9"/>
					</defs>
					<clipPath id="SVGID_56_">
						<use xlink:href="#SVGID_55_"  style="overflow:visible;"/>
					</clipPath>
					<rect x="204.3" y="374.1" class="st31" width="7" height="6.5"/>
				</g>
			</g>
		</g>
	</g>
	<g>
		<g>
			<g>
				<g>
					<defs>
						<rect id="SVGID_57_" x="-1.9" width="613.9" height="397.9"/>
					</defs>
					<clipPath id="SVGID_58_">
						<use xlink:href="#SVGID_57_"  style="overflow:visible;"/>
					</clipPath>
					<g class="st32">
						<text transform="matrix(1.0837 0 0 1 214.9268 382.3459)" class="st9 st10 st11">B</text>
						<text transform="matrix(1.0837 0 0 1 224.355 382.3459)" class="st9 st10 st11">o</text>
						<text transform="matrix(1.0837 0 0 1 232.4824 382.3459)" class="st9 st10 st11">t</text>
						<text transform="matrix(1.0837 0 0 1 236.0586 382.3459)" class="st9 st10 st11">h</text>
						<text transform="matrix(1.0837 0 0 1 244.1865 382.3459)" class="st9 st10 st11"> </text>
						<text transform="matrix(1.0837 0 0 1 247.7627 382.3459)" class="st9 st10 st11">s</text>
						<text transform="matrix(1.0837 0 0 1 254.8066 382.3459)" class="st9 st10 st11">e</text>
						<text transform="matrix(1.0837 0 0 1 262.9346 382.3459)" class="st9 st10 st11">x</text>
						<text transform="matrix(1.0837 0 0 1 269.9785 382.3459)" class="st9 st10 st11">e</text>
						<text transform="matrix(1.0837 0 0 1 278.2148 382.3459)" class="st9 st10 st11">s</text>
					</g>
				</g>
			</g>
		</g>
	</g>
	<g>
		<g>
			<g>
				<g>
					<defs>
						<rect id="SVGID_59_" x="-1.9" width="613.9" height="397.9"/>
					</defs>
					<clipPath id="SVGID_60_">
						<use xlink:href="#SVGID_59_"  style="overflow:visible;"/>
					</clipPath>
					<rect x="298" y="374.1" class="st33" width="8.2" height="6.5"/>
				</g>
			</g>
		</g>
	</g>
	<g>
		<g>
			<g>
				<g>
					<defs>
						<rect id="SVGID_61_" x="-1.9" width="613.9" height="397.9"/>
					</defs>
					<clipPath id="SVGID_62_">
						<use xlink:href="#SVGID_61_"  style="overflow:visible;"/>
					</clipPath>
					<g class="st34">
						<text transform="matrix(1.0837 0 0 1 309.3135 382.3459)" class="st9 st10 st11">M</text>
						<text transform="matrix(1.0837 0 0 1 321.0176 382.3459)" class="st9 st10 st11">a</text>
						<text transform="matrix(1.0837 0 0 1 329.2539 382.3459)" class="st9 st10 st11">l</text>
						<text transform="matrix(1.0837 0 0 1 332.7217 382.3459)" class="st9 st10 st11">e</text>
					</g>
				</g>
			</g>
		</g>
	</g>
	<g>
		<g>
			<g>
				<g>
					<defs>
						<rect id="SVGID_63_" x="-1.9" width="613.9" height="397.9"/>
					</defs>
					<clipPath id="SVGID_64_">
						<use xlink:href="#SVGID_63_"  style="overflow:visible;"/>
					</clipPath>
					<rect x="354.2" y="374.1" class="st35" width="7" height="6.5"/>
				</g>
			</g>
		</g>
	</g>
	<g>
		<g>
			<g>
				<g>
					<defs>
						<rect id="SVGID_65_" x="-1.9" width="613.9" height="397.9"/>
					</defs>
					<clipPath id="SVGID_66_">
						<use xlink:href="#SVGID_65_"  style="overflow:visible;"/>
					</clipPath>
					<g class="st36">
						<text transform="matrix(1.0837 0 0 1 364.6104 382.3459)" class="st9 st10 st11">F</text>
						<text transform="matrix(1.0837 0 0 1 372.8467 382.3459)" class="st9 st10 st11">e</text>
						<text transform="matrix(1.0837 0 0 1 380.9746 382.3459)" class="st9 st10 st11">m</text>
						<text transform="matrix(1.0837 0 0 1 392.6777 382.3459)" class="st9 st10 st11">a</text>
						<text transform="matrix(1.0837 0 0 1 400.9141 382.3459)" class="st9 st10 st11">l</text>
						<text transform="matrix(1.0837 0 0 1 404.4902 382.3459)" class="st9 st10 st11">e</text>
					</g>
				</g>
			</g>
		</g>
	</g>
	<g>
		<g>
			<g>
				<g>
					<defs>
						<rect id="SVGID_67_" x="-1.9" width="613.9" height="397.9"/>
					</defs>
					<clipPath id="SVGID_68_">
						<use xlink:href="#SVGID_67_"  style="overflow:visible;"/>
					</clipPath>
					<g class="st37">
						<rect x="-1.4" y="0.5" class="st38" width="612.8" height="396.8"/>
					</g>
				</g>
			</g>
		</g>
	</g>
</g>
<text transform="matrix(1 0 0 1 181 25.8)" class="st10 st39">Death Rates for  all Races and Sexes</text>
</svg>
