<?xml version="1.0" encoding="utf-8"?>
<!-- Generator: Adobe Illustrator 20.1.0, SVG Export Plug-In . SVG Version: 6.00 Build 0)  -->
<svg version="1.1" id="Layer_1" xmlns="http://www.w3.org/2000/svg" xmlns:xlink="http://www.w3.org/1999/xlink" x="0px" y="0px"
	 viewBox="0 0 612 390.8" style="enable-background:new 0 0 612 390.8;" xml:space="preserve">
<style type="text/css">
	.st0{clip-path:url(#SVGID_2_);fill:#FFFFFF;fill-opacity:0;}
	.st1{clip-path:url(#SVGID_4_);}
	.st2{fill:none;}
	.st3{clip-path:url(#SVGID_6_);fill:none;stroke:#D9D9D8;stroke-linejoin:round;stroke-miterlimit:10;}
	.st4{clip-path:url(#SVGID_8_);fill:none;stroke:#D9D9D8;stroke-linejoin:round;stroke-miterlimit:10;}
	.st5{clip-path:url(#SVGID_10_);fill:#5D9BD3;}
	.st6{clip-path:url(#SVGID_12_);fill:#ED7D30;}
	.st7{fill:#A5A5A5;}
	.st8{clip-path:url(#SVGID_14_);fill:none;stroke:#D9D9D8;stroke-linejoin:round;stroke-miterlimit:10;}
	.st9{clip-path:url(#SVGID_16_);fill:none;stroke:#D9D9D8;stroke-linejoin:round;stroke-miterlimit:10;}
	.st10{clip-path:url(#SVGID_18_);fill:none;stroke:#D9D9D8;stroke-linejoin:round;stroke-miterlimit:10;}
	.st11{clip-path:url(#SVGID_20_);}
	.st12{fill:#595A5A;}
	.st13{font-family:'Helvetica';}
	.st14{font-size:12.8841px;}
	.st15{clip-path:url(#SVGID_22_);}
	.st16{clip-path:url(#SVGID_24_);}
	.st17{clip-path:url(#SVGID_26_);}
	.st18{clip-path:url(#SVGID_28_);}
	.st19{clip-path:url(#SVGID_30_);}
	.st20{clip-path:url(#SVGID_32_);}
	.st21{clip-path:url(#SVGID_34_);}
	.st22{clip-path:url(#SVGID_36_);}
	.st23{clip-path:url(#SVGID_38_);}
	.st24{clip-path:url(#SVGID_40_);}
	.st25{clip-path:url(#SVGID_42_);}
	.st26{clip-path:url(#SVGID_44_);}
	.st27{clip-path:url(#SVGID_46_);}
	.st28{clip-path:url(#SVGID_48_);}
	.st29{clip-path:url(#SVGID_50_);}
	.st30{clip-path:url(#SVGID_52_);}
	.st31{clip-path:url(#SVGID_54_);}
	.st32{font-size:15.0315px;}
	.st33{clip-path:url(#SVGID_56_);fill:#5D9BD3;}
	.st34{clip-path:url(#SVGID_58_);}
	.st35{clip-path:url(#SVGID_60_);fill:#ED7D30;}
	.st36{clip-path:url(#SVGID_62_);}
	.st37{clip-path:url(#SVGID_64_);fill:#A5A5A5;}
	.st38{clip-path:url(#SVGID_66_);}
	.st39{clip-path:url(#SVGID_68_);}
	.st40{font-size:16px;}
</style>
<g>
	<g>
		<g>
			<g>
				<g>
					<g>
						<defs>
							<rect id="SVGID_1_" x="18.5" y="1.1" width="612" height="364.9"/>
						</defs>
						<clipPath id="SVGID_2_">
							<use xlink:href="#SVGID_1_"  style="overflow:visible;"/>
						</clipPath>
						<rect x="18.5" y="44" class="st0" width="612" height="322"/>
					</g>
				</g>
			</g>
		</g>
	</g>
	<g>
		<g>
			<g>
				<g>
					<g>
						<defs>
							<rect id="SVGID_3_" x="18.5" y="1.1" width="612" height="364.9"/>
						</defs>
						<clipPath id="SVGID_4_">
							<use xlink:href="#SVGID_3_"  style="overflow:visible;"/>
						</clipPath>
						<g class="st1">
							<rect x="18.5" y="1.1" class="st2" width="612" height="364.9"/>
						</g>
					</g>
				</g>
			</g>
		</g>
	</g>
	<g>
		<g>
			<g>
				<g>
					<g>
						<defs>
							<rect id="SVGID_5_" x="18.5" y="1.1" width="612" height="364.9"/>
						</defs>
						<clipPath id="SVGID_6_">
							<use xlink:href="#SVGID_5_"  style="overflow:visible;"/>
						</clipPath>
						<path class="st3" d="M615.8,42.6"/>
					</g>
				</g>
			</g>
		</g>
		<g>
			<g>
				<g>
					<g>
						<defs>
							<rect id="SVGID_7_" x="18.5" y="1.1" width="612" height="364.9"/>
						</defs>
						<clipPath id="SVGID_8_">
							<use xlink:href="#SVGID_7_"  style="overflow:visible;"/>
						</clipPath>
						<path class="st4" d="M103,42.6"/>
					</g>
				</g>
			</g>
		</g>
	</g>
</g>
<g>
	<g>
		<g>
			<g>
				<g>
					<g>
						<defs>
							<rect id="SVGID_9_" x="102.4" y="54" width="512.8" height="275.6"/>
						</defs>
						<clipPath id="SVGID_10_">
							<use xlink:href="#SVGID_9_"  style="overflow:visible;"/>
						</clipPath>
						<path class="st5" d="M544.3,77.3h5.9v252.3h-5.9V77.3z M504.1,82.7h7.1v246.9h-7.1V82.7z M465.1,84.9h7.1v244.8h-7.1V84.9z
							 M426.1,89.1h5.9v240.5h-5.9V89.1z M385.9,92.4h7.1v237.3h-7.1V92.4z M346.9,88.1h7.1v241.6h-7.1V88.1z M308,93.4h5.9v236.2
							H308V93.4z M267.8,93.4h7.1v236.2h-7.1V93.4L267.8,93.4z M228.8,91.3h7.1v238.4h-7.1V91.3z M189.8,95.6h5.9v234.1h-5.9V95.6z
							 M149.6,90.2h7.1v239.4h-7.1V90.2z"/>
					</g>
				</g>
			</g>
		</g>
	</g>
</g>
<g>
	<g>
		<g>
			<g>
				<g>
					<g>
						<defs>
							<polyline id="SVGID_11_" points="102.4,45.1 102.4,329.7 615.1,329.7 615.1,45.1 							"/>
						</defs>
						<clipPath id="SVGID_12_">
							<use xlink:href="#SVGID_11_"  style="overflow:visible;"/>
						</clipPath>
						<path class="st6" d="M552.5,203h7.1v126.7h-7.1V203z M513.5,206.2h7.1v123.5h-7.1V206.2z M473.4,207.3h7.1v122.4h-7.1V207.3z
							 M434.4,209.4h7.1v120.3h-7.1V209.4z M395.4,211.5h5.9v118.1h-5.9V211.5z M355.2,210.5h7.1v119.2h-7.1V210.5z M316.2,212.6
							h7.1v117h-7.1V212.6z M277.2,212.6h5.9v117h-5.9V212.6z M237.1,212.6h7.1v117h-7.1V212.6z M198.1,214.8h7.1v114.9h-7.1V214.8z
							 M159.1,90.2h5.9v239.4h-5.9V90.2z"/>
					</g>
				</g>
			</g>
		</g>
	</g>
</g>
<g>
	<path class="st7" d="M560.8,204h7.1v125.6h-7.1V204z M521.8,205.1h7.1v124.5h-7.1V205.1z M482.8,206.2h7.1v123.5h-7.1V206.2z
		 M442.6,208.3h7.1v121.3h-7.1V208.3z M403.7,210.5h7.1v119.2h-7.1V210.5z M364.7,207.3h7.1v122.4h-7.1V207.3z M324.5,210.5h7.1
		v119.2h-7.1V210.5z M285.5,209.4h7.1v120.3h-7.1V209.4z M246.5,207.3h7.1v122.4h-7.1V207.3z M206.4,210.5h7.1v119.2h-7.1V210.5z
		 M167.4,207.3h7.1v122.4h-7.1V207.3z"/>
</g>
<g>
	<g>
		<g>
			<g>
				<g>
					<g>
						<defs>
							<rect id="SVGID_13_" x="18.5" y="-0.5" width="612" height="391.9"/>
						</defs>
						<clipPath id="SVGID_14_">
							<use xlink:href="#SVGID_13_"  style="overflow:visible;"/>
						</clipPath>
						<path class="st8" d="M615.7,327.5"/>
					</g>
				</g>
			</g>
		</g>
	</g>
	<g>
		<g>
			<g>
				<g>
					<g>
						<defs>
							<rect id="SVGID_15_" x="18.5" y="-0.5" width="612" height="391.9"/>
						</defs>
						<clipPath id="SVGID_16_">
							<use xlink:href="#SVGID_15_"  style="overflow:visible;"/>
						</clipPath>
						<path class="st9" d="M103,327.5"/>
					</g>
				</g>
			</g>
		</g>
	</g>
	<g>
		<g>
			<g>
				<g>
					<g>
						<defs>
							<rect id="SVGID_17_" x="18.5" y="-0.5" width="612" height="391.9"/>
						</defs>
						<clipPath id="SVGID_18_">
							<use xlink:href="#SVGID_17_"  style="overflow:visible;"/>
						</clipPath>
						<path class="st10" d="M536.6,327.5v4.3 M496.4,327.5v4.3 M457.4,327.5v4.3 M418.4,327.5v4.3 M378.3,327.5v4.3 M339.3,327.5
							v4.3 M300.3,327.5v4.3 M260.1,327.5v4.3 M221.1,327.5v4.3 M182.1,327.5v4.3"/>
					</g>
				</g>
			</g>
		</g>
	</g>
	<g>
		<g>
			<g>
				<g>
					<g>
						<defs>
							<rect id="SVGID_19_" x="18.5" y="-0.5" width="612" height="391.9"/>
						</defs>
						<clipPath id="SVGID_20_">
							<use xlink:href="#SVGID_19_"  style="overflow:visible;"/>
						</clipPath>
						<g class="st11">
							<text transform="matrix(1.1004 0 0 1 81.1875 332.6768)" class="st12 st13 st14">0</text>
						</g>
					</g>
				</g>
			</g>
		</g>
	</g>
	<g>
		<g>
			<g>
				<g>
					<g>
						<defs>
							<rect id="SVGID_21_" x="18.5" y="-0.5" width="612" height="391.9"/>
						</defs>
						<clipPath id="SVGID_22_">
							<use xlink:href="#SVGID_21_"  style="overflow:visible;"/>
						</clipPath>
						<g class="st15">
							<text transform="matrix(1.1004 0 0 1 37.0547 275.9287)" class="st12 st13 st14">500</text>
							<text transform="matrix(1.1004 0 0 1 61.8135 275.9287)" class="st12 st13 st14">,</text>
							<text transform="matrix(1.1004 0 0 1 65.4434 275.9287)" class="st12 st13 st14">00</text>
							<text transform="matrix(1.1004 0 0 1 81.9512 275.9287)" class="st12 st13 st14">0</text>
						</g>
					</g>
				</g>
			</g>
		</g>
	</g>
	<g>
		<g>
			<g>
				<g>
					<g>
						<defs>
							<rect id="SVGID_23_" x="18.5" y="-0.5" width="612" height="391.9"/>
						</defs>
						<clipPath id="SVGID_24_">
							<use xlink:href="#SVGID_23_"  style="overflow:visible;"/>
						</clipPath>
						<g class="st16">
							<text transform="matrix(1.1004 0 0 1 25.2344 219.1807)" class="st12 st13 st14">1</text>
							<text transform="matrix(1.1004 0 0 1 33.4873 219.1807)" class="st12 st13 st14">,</text>
							<text transform="matrix(1.1004 0 0 1 37.0088 219.1807)" class="st12 st13 st14">000</text>
							<text transform="matrix(1.1004 0 0 1 61.877 219.1807)" class="st12 st13 st14">,</text>
							<text transform="matrix(1.1004 0 0 1 65.3975 219.1807)" class="st12 st13 st14">00</text>
							<text transform="matrix(1.1004 0 0 1 81.9053 219.1807)" class="st12 st13 st14">0</text>
						</g>
					</g>
				</g>
			</g>
		</g>
	</g>
	<g>
		<g>
			<g>
				<g>
					<g>
						<defs>
							<rect id="SVGID_25_" x="18.5" y="-0.5" width="612" height="391.9"/>
						</defs>
						<clipPath id="SVGID_26_">
							<use xlink:href="#SVGID_25_"  style="overflow:visible;"/>
						</clipPath>
						<g class="st17">
							<text transform="matrix(1.1004 0 0 1 25.2344 162.4336)" class="st12 st13 st14">1</text>
							<text transform="matrix(1.1004 0 0 1 33.4873 162.4336)" class="st12 st13 st14">,</text>
							<text transform="matrix(1.1004 0 0 1 37.0088 162.4336)" class="st12 st13 st14">500</text>
							<text transform="matrix(1.1004 0 0 1 61.877 162.4336)" class="st12 st13 st14">,</text>
							<text transform="matrix(1.1004 0 0 1 65.3975 162.4336)" class="st12 st13 st14">00</text>
							<text transform="matrix(1.1004 0 0 1 81.9053 162.4336)" class="st12 st13 st14">0</text>
						</g>
					</g>
				</g>
			</g>
		</g>
	</g>
	<g>
		<g>
			<g>
				<g>
					<g>
						<defs>
							<rect id="SVGID_27_" x="18.5" y="-0.5" width="612" height="391.9"/>
						</defs>
						<clipPath id="SVGID_28_">
							<use xlink:href="#SVGID_27_"  style="overflow:visible;"/>
						</clipPath>
						<g class="st18">
							<text transform="matrix(1.1004 0 0 1 25.2344 105.6855)" class="st12 st13 st14">2</text>
							<text transform="matrix(1.1004 0 0 1 33.4873 105.6855)" class="st12 st13 st14">,</text>
							<text transform="matrix(1.1004 0 0 1 37.0088 105.6855)" class="st12 st13 st14">000</text>
							<text transform="matrix(1.1004 0 0 1 61.877 105.6855)" class="st12 st13 st14">,</text>
							<text transform="matrix(1.1004 0 0 1 65.3975 105.6855)" class="st12 st13 st14">00</text>
							<text transform="matrix(1.1004 0 0 1 81.9053 105.6855)" class="st12 st13 st14">0</text>
						</g>
					</g>
				</g>
			</g>
		</g>
	</g>
	<g>
		<g>
			<g>
				<g>
					<g>
						<defs>
							<rect id="SVGID_29_" x="18.5" y="-0.5" width="612" height="391.9"/>
						</defs>
						<clipPath id="SVGID_30_">
							<use xlink:href="#SVGID_29_"  style="overflow:visible;"/>
						</clipPath>
						<g class="st19">
							<text transform="matrix(1.1004 0 0 1 25.2344 48.938)" class="st12 st13 st14">2</text>
							<text transform="matrix(1.1004 0 0 1 33.4873 48.938)" class="st12 st13 st14">,</text>
							<text transform="matrix(1.1004 0 0 1 37.0088 48.938)" class="st12 st13 st14">500</text>
							<text transform="matrix(1.1004 0 0 1 61.877 48.938)" class="st12 st13 st14">,</text>
							<text transform="matrix(1.1004 0 0 1 65.3975 48.938)" class="st12 st13 st14">00</text>
							<text transform="matrix(1.1004 0 0 1 81.9053 48.938)" class="st12 st13 st14">0</text>
						</g>
					</g>
				</g>
			</g>
		</g>
	</g>
	<g>
		<g>
			<g>
				<g>
					<g>
						<defs>
							<rect id="SVGID_31_" x="18.5" y="-0.5" width="612" height="391.9"/>
						</defs>
						<clipPath id="SVGID_32_">
							<use xlink:href="#SVGID_31_"  style="overflow:visible;"/>
						</clipPath>
						<g class="st20">
							<text transform="matrix(1.1004 0 0 1 140.7139 348.751)" class="st12 st13 st14">2003</text>
						</g>
					</g>
				</g>
			</g>
		</g>
	</g>
	<g>
		<g>
			<g>
				<g>
					<g>
						<defs>
							<rect id="SVGID_33_" x="18.5" y="-0.5" width="612" height="391.9"/>
						</defs>
						<clipPath id="SVGID_34_">
							<use xlink:href="#SVGID_33_"  style="overflow:visible;"/>
						</clipPath>
						<g class="st21">
							<text transform="matrix(1.1004 0 0 1 182.1123 348.751)" class="st12 st13 st14">2004</text>
						</g>
					</g>
				</g>
			</g>
		</g>
	</g>
	<g>
		<g>
			<g>
				<g>
					<g>
						<defs>
							<rect id="SVGID_35_" x="18.5" y="-0.5" width="612" height="391.9"/>
						</defs>
						<clipPath id="SVGID_36_">
							<use xlink:href="#SVGID_35_"  style="overflow:visible;"/>
						</clipPath>
						<g class="st22">
							<text transform="matrix(1.1004 0 0 1 225.5098 348.751)" class="st12 st13 st14">2005</text>
						</g>
					</g>
				</g>
			</g>
		</g>
	</g>
	<g>
		<g>
			<g>
				<g>
					<g>
						<defs>
							<rect id="SVGID_37_" x="18.5" y="-0.5" width="612" height="391.9"/>
						</defs>
						<clipPath id="SVGID_38_">
							<use xlink:href="#SVGID_37_"  style="overflow:visible;"/>
						</clipPath>
						<g class="st23">
							<text transform="matrix(1.1004 0 0 1 265.9102 348.751)" class="st12 st13 st14">2006</text>
						</g>
					</g>
				</g>
			</g>
		</g>
	</g>
	<g>
		<g>
			<g>
				<g>
					<g>
						<defs>
							<rect id="SVGID_39_" x="18.5" y="-0.5" width="612" height="391.9"/>
						</defs>
						<clipPath id="SVGID_40_">
							<use xlink:href="#SVGID_39_"  style="overflow:visible;"/>
						</clipPath>
						<g class="st24">
							<text transform="matrix(1.1004 0 0 1 305.3096 348.751)" class="st12 st13 st14">2007</text>
						</g>
					</g>
				</g>
			</g>
		</g>
	</g>
	<g>
		<g>
			<g>
				<g>
					<g>
						<defs>
							<rect id="SVGID_41_" x="18.5" y="-0.5" width="612" height="391.9"/>
						</defs>
						<clipPath id="SVGID_42_">
							<use xlink:href="#SVGID_41_"  style="overflow:visible;"/>
						</clipPath>
						<g class="st25">
							<text transform="matrix(1.1004 0 0 1 343.71 347.751)" class="st12 st13 st14">2008</text>
						</g>
					</g>
				</g>
			</g>
		</g>
	</g>
	<g>
		<g>
			<g>
				<g>
					<g>
						<defs>
							<rect id="SVGID_43_" x="18.5" y="-0.5" width="612" height="391.9"/>
						</defs>
						<clipPath id="SVGID_44_">
							<use xlink:href="#SVGID_43_"  style="overflow:visible;"/>
						</clipPath>
						<g class="st26">
							<text transform="matrix(1.1004 0 0 1 382.1084 347.751)" class="st12 st13 st14">2009</text>
						</g>
					</g>
				</g>
			</g>
		</g>
	</g>
	<g>
		<g>
			<g>
				<g>
					<g>
						<defs>
							<rect id="SVGID_45_" x="18.5" y="-0.5" width="612" height="391.9"/>
						</defs>
						<clipPath id="SVGID_46_">
							<use xlink:href="#SVGID_45_"  style="overflow:visible;"/>
						</clipPath>
						<g class="st27">
							<text transform="matrix(1.1004 0 0 1 422.5068 347.751)" class="st12 st13 st14">2010</text>
						</g>
					</g>
				</g>
			</g>
		</g>
	</g>
	<g>
		<g>
			<g>
				<g>
					<g>
						<defs>
							<rect id="SVGID_47_" x="18.5" y="-0.5" width="612" height="391.9"/>
						</defs>
						<clipPath id="SVGID_48_">
							<use xlink:href="#SVGID_47_"  style="overflow:visible;"/>
						</clipPath>
						<g class="st28">
							<text transform="matrix(1.1004 0 0 1 463.1826 347.751)" class="st12 st13 st14">2011</text>
						</g>
					</g>
				</g>
			</g>
		</g>
	</g>
	<g>
		<g>
			<g>
				<g>
					<g>
						<defs>
							<rect id="SVGID_49_" x="18.5" y="-0.5" width="612" height="391.9"/>
						</defs>
						<clipPath id="SVGID_50_">
							<use xlink:href="#SVGID_49_"  style="overflow:visible;"/>
						</clipPath>
						<g class="st29">
							<text transform="matrix(1.1004 0 0 1 503.7607 346.751)" class="st12 st13 st14">2012</text>
						</g>
					</g>
				</g>
			</g>
		</g>
	</g>
	<g>
		<g>
			<g>
				<g>
					<g>
						<defs>
							<rect id="SVGID_51_" x="18.5" y="-0.5" width="612" height="391.9"/>
						</defs>
						<clipPath id="SVGID_52_">
							<use xlink:href="#SVGID_51_"  style="overflow:visible;"/>
						</clipPath>
						<g class="st30">
							<text transform="matrix(1.1004 0 0 1 542.9814 346.751)" class="st12 st13 st14">2013</text>
						</g>
					</g>
				</g>
			</g>
		</g>
	</g>
	<g>
		<g>
			<g>
				<g>
					<g>
						<defs>
							<rect id="SVGID_53_" x="18.5" y="-0.5" width="612" height="391.9"/>
						</defs>
						<clipPath id="SVGID_54_">
							<use xlink:href="#SVGID_53_"  style="overflow:visible;"/>
						</clipPath>
						<g class="st31">
							<text transform="matrix(1.1004 0 0 1 265.1348 24.6895)" class="st12 st13 st32"> </text>
							<text transform="matrix(1.1004 0 0 1 315.9727 24.6895)" class="st12 st13 st32"> </text>
						</g>
					</g>
				</g>
			</g>
		</g>
	</g>
	<g>
		<g>
			<g>
				<g>
					<g>
						<defs>
							<rect id="SVGID_55_" x="18.5" y="-0.5" width="612" height="391.9"/>
						</defs>
						<clipPath id="SVGID_56_">
							<use xlink:href="#SVGID_55_"  style="overflow:visible;"/>
						</clipPath>
						<rect x="178" y="367.8" class="st33" width="8.3" height="6.4"/>
					</g>
				</g>
			</g>
		</g>
	</g>
	<g>
		<g>
			<g>
				<g>
					<g>
						<defs>
							<rect id="SVGID_57_" x="18.5" y="-0.5" width="612" height="391.9"/>
						</defs>
						<clipPath id="SVGID_58_">
							<use xlink:href="#SVGID_57_"  style="overflow:visible;"/>
						</clipPath>
						<g class="st34">
							<text transform="matrix(1.1004 0 0 1 189.4434 375.9551)" class="st12 st13 st14">B</text>
							<text transform="matrix(1.1004 0 0 1 198.9082 375.9551)" class="st12 st13 st14">o</text>
							<text transform="matrix(1.1004 0 0 1 207.1602 375.9551)" class="st12 st13 st14">t</text>
							<text transform="matrix(1.1004 0 0 1 210.6807 375.9551)" class="st12 st13 st14">h</text>
							<text transform="matrix(1.1004 0 0 1 219.0435 375.9551)" class="st12 st13 st14"> </text>
							<text transform="matrix(1.1004 0 0 1 222.5664 375.9551)" class="st12 st13 st14">s</text>
							<text transform="matrix(1.1004 0 0 1 229.6094 375.9551)" class="st12 st13 st14">e</text>
							<text transform="matrix(1.1004 0 0 1 237.8623 375.9551)" class="st12 st13 st14">x</text>
							<text transform="matrix(1.1004 0 0 1 245.0137 375.9551)" class="st12 st13 st14">e</text>
							<text transform="matrix(1.1004 0 0 1 253.2676 375.9551)" class="st12 st13 st14">s</text>
						</g>
					</g>
				</g>
			</g>
		</g>
	</g>
	<g>
		<g>
			<g>
				<g>
					<g>
						<defs>
							<rect id="SVGID_59_" x="18.5" y="-0.5" width="612" height="391.9"/>
						</defs>
						<clipPath id="SVGID_60_">
							<use xlink:href="#SVGID_59_"  style="overflow:visible;"/>
						</clipPath>
						<rect x="277.2" y="367.8" class="st35" width="8.3" height="6.4"/>
					</g>
				</g>
			</g>
		</g>
	</g>
	<g>
		<g>
			<g>
				<g>
					<g>
						<defs>
							<rect id="SVGID_61_" x="18.5" y="-0.5" width="612" height="391.9"/>
						</defs>
						<clipPath id="SVGID_62_">
							<use xlink:href="#SVGID_61_"  style="overflow:visible;"/>
						</clipPath>
						<g class="st36">
							<text transform="matrix(1.1004 0 0 1 288.6387 375.9551)" class="st12 st13 st14">W</text>
							<text transform="matrix(1.1004 0 0 1 301.6235 375.9551)" class="st12 st13 st14">hi</text>
							<text transform="matrix(1.1004 0 0 1 313.3979 375.9551)" class="st12 st13 st14">t</text>
							<text transform="matrix(1.1004 0 0 1 317.0303 375.9551)" class="st12 st13 st14">e</text>
							<text transform="matrix(1.1004 0 0 1 325.2842 375.9551)" class="st12 st13 st14"> </text>
							<text transform="matrix(1.1004 0 0 1 328.8057 375.9551)" class="st12 st13 st14">M</text>
							<text transform="matrix(1.1004 0 0 1 340.5801 375.9551)" class="st12 st13 st14">al</text>
							<text transform="matrix(1.1004 0 0 1 352.3535 375.9551)" class="st12 st13 st14">e</text>
						</g>
					</g>
				</g>
			</g>
		</g>
	</g>
	<g>
		<g>
			<g>
				<g>
					<g>
						<defs>
							<rect id="SVGID_63_" x="18.5" y="-0.5" width="612" height="391.9"/>
						</defs>
						<clipPath id="SVGID_64_">
							<use xlink:href="#SVGID_63_"  style="overflow:visible;"/>
						</clipPath>
						<rect x="377.7" y="367.8" class="st37" width="8.3" height="6.4"/>
					</g>
				</g>
			</g>
		</g>
	</g>
	<g>
		<g>
			<g>
				<g>
					<g>
						<defs>
							<rect id="SVGID_65_" x="18.5" y="-0.5" width="612" height="391.9"/>
						</defs>
						<clipPath id="SVGID_66_">
							<use xlink:href="#SVGID_65_"  style="overflow:visible;"/>
						</clipPath>
						<g class="st38">
							<text transform="matrix(1.1004 0 0 1 388.6006 375.9551)" class="st12 st13 st14">W</text>
							<text transform="matrix(1.1004 0 0 1 401.585 375.9551)" class="st12 st13 st14">hi</text>
							<text transform="matrix(1.1004 0 0 1 413.3594 375.9551)" class="st12 st13 st14">t</text>
							<text transform="matrix(1.1004 0 0 1 416.9902 375.9551)" class="st12 st13 st14">e</text>
							<text transform="matrix(1.1004 0 0 1 425.2441 375.9551)" class="st12 st13 st14"> </text>
							<text transform="matrix(1.1004 0 0 1 428.7646 375.9551)" class="st12 st13 st14">F</text>
							<text transform="matrix(1.1004 0 0 1 437.0176 375.9551)" class="st12 st13 st14">e</text>
							<text transform="matrix(1.1004 0 0 1 445.2705 375.9551)" class="st12 st13 st14">m</text>
							<text transform="matrix(1.1004 0 0 1 457.1553 375.9551)" class="st12 st13 st14">al</text>
							<text transform="matrix(1.1004 0 0 1 468.9297 375.9551)" class="st12 st13 st14">e</text>
						</g>
					</g>
				</g>
			</g>
		</g>
	</g>
	<g>
		<g>
			<g>
				<g>
					<g>
						<defs>
							<rect id="SVGID_67_" x="18.5" y="-0.5" width="612" height="391.9"/>
						</defs>
						<clipPath id="SVGID_68_">
							<use xlink:href="#SVGID_67_"  style="overflow:visible;"/>
						</clipPath>
						<g class="st39">
							<rect x="19.1" class="st2" width="610.8" height="390.8"/>
						</g>
					</g>
				</g>
			</g>
		</g>
	</g>
	<text transform="matrix(1 0 0 1 215.5 28.35)" class="st13 st40">White Death Rates by Race and Sex</text>
</g>
<rect x="325.5" y="-45" class="st2" width="173" height="17"/>
<rect x="180.5" y="-75" class="st2" width="305" height="41"/>
</svg>
